<svg width="313" height="313" viewBox="0 0 313 313" fill="none" xmlns="http://www.w3.org/2000/svg">
<g clip-path="url(#clip0_10_1694)">
<path d="M255.477 90.2441L262.069 94.3319L263.321 92.3162C263.502 92.0264 263.76 91.7927 264.066 91.6412C264.372 91.4897 264.714 91.4265 265.055 91.4586C265.443 91.4899 265.825 91.5024 266.213 91.4961C266.554 91.4839 266.891 91.5671 267.188 91.7363C267.484 91.9055 267.728 92.154 267.89 92.4539L269.011 94.551L275.847 90.8827L274.726 88.7918C274.571 88.4893 274.5 88.15 274.522 87.8104C274.544 87.4708 274.658 87.1436 274.852 86.8637C275.071 86.5445 275.277 86.2377 275.478 85.8747C275.638 85.5729 275.879 85.3221 276.175 85.1506C276.47 84.9791 276.808 84.8938 277.149 84.9044L279.521 84.9795L279.766 77.2233L277.381 77.1545C277.039 77.1412 276.708 77.0328 276.425 76.8414C276.142 76.65 275.918 76.3834 275.778 76.0715C275.697 75.9025 275.609 75.7335 275.521 75.5644C275.434 75.3954 275.334 75.2264 275.233 75.0636C275.06 74.773 274.969 74.441 274.969 74.1027C274.969 73.7645 275.06 73.4325 275.233 73.1418L276.485 71.1073L269.894 67.0195L268.642 69.0415C268.459 69.3312 268.2 69.5643 267.893 69.7147C267.585 69.8651 267.242 69.9268 266.901 69.8929C266.519 69.8616 266.138 69.8491 265.749 69.8553C265.41 69.8609 265.075 69.7741 264.781 69.6044C264.486 69.4346 264.243 69.1882 264.078 68.8913L262.951 66.8004L256.115 70.4688L257.236 72.5596C257.393 72.8617 257.464 73.2006 257.443 73.5402C257.422 73.8797 257.31 74.2073 257.117 74.4877C256.888 74.8021 256.679 75.1304 256.491 75.4705C256.329 75.7723 256.087 76.023 255.79 76.1944C255.494 76.3658 255.155 76.4512 254.813 76.4408L252.434 76.372L252.197 84.1219L254.575 84.197C254.915 84.2146 255.243 84.324 255.526 84.5136C255.808 84.7033 256.033 84.966 256.178 85.2737C256.259 85.449 256.341 85.618 256.435 85.7933C256.529 85.9686 256.616 86.1251 256.716 86.2878C256.896 86.5785 256.991 86.9134 256.991 87.255C256.991 87.5966 256.896 87.9315 256.716 88.2222L255.477 90.2441ZM260.372 83.6774C259.779 82.5694 259.528 81.3105 259.651 80.0599C259.774 78.8093 260.264 77.6231 261.061 76.6513C261.858 75.6796 262.925 74.9659 264.127 74.6005C265.329 74.2351 266.613 74.2345 267.816 74.5986C269.018 74.9627 270.086 75.6753 270.884 76.6462C271.682 77.6172 272.174 78.8028 272.297 80.0533C272.421 81.3038 272.172 82.563 271.58 83.6716C270.988 84.7802 270.081 85.6885 268.973 86.2816C268.238 86.6754 267.432 86.9205 266.601 87.0028C265.771 87.0851 264.932 87.003 264.133 86.7612C263.335 86.5193 262.591 86.1225 261.946 85.5934C261.301 85.0643 260.766 84.4132 260.372 83.6774V83.6774Z" fill="#EBEBEB"/>
<path d="M249.029 121.225L251.746 125.932L253.186 125.1C253.392 124.976 253.63 124.914 253.871 124.921C254.112 124.929 254.346 125.006 254.544 125.144C254.77 125.293 255.004 125.428 255.245 125.551C255.461 125.653 255.643 125.816 255.77 126.019C255.896 126.222 255.962 126.457 255.959 126.696V128.361H261.399V126.696C261.396 126.457 261.462 126.222 261.588 126.019C261.715 125.816 261.897 125.653 262.112 125.551C262.354 125.428 262.588 125.293 262.814 125.144C263.012 125.006 263.245 124.929 263.486 124.921C263.727 124.914 263.965 124.976 264.172 125.1L265.612 125.932L268.329 121.225L266.883 120.386C266.677 120.265 266.51 120.088 266.4 119.877C266.289 119.666 266.24 119.428 266.257 119.19C266.257 119.059 266.257 118.921 266.257 118.79C266.257 118.658 266.257 118.521 266.257 118.389C266.24 118.151 266.29 117.914 266.401 117.703C266.511 117.492 266.678 117.315 266.883 117.193L268.335 116.361L265.618 111.653L264.172 112.486C263.964 112.604 263.728 112.662 263.489 112.654C263.25 112.645 263.018 112.569 262.82 112.436C262.594 112.292 262.357 112.154 262.119 112.029C261.903 111.926 261.721 111.764 261.594 111.561C261.468 111.358 261.402 111.123 261.405 110.883V109.218H255.965V110.883C255.968 111.123 255.902 111.358 255.776 111.561C255.649 111.764 255.467 111.926 255.251 112.029C255.014 112.154 254.782 112.292 254.557 112.436C254.357 112.569 254.124 112.644 253.885 112.653C253.645 112.662 253.407 112.604 253.198 112.486L251.752 111.653L249.035 116.361L250.481 117.193C250.686 117.315 250.854 117.491 250.964 117.702C251.075 117.914 251.124 118.151 251.107 118.389C251.107 118.521 251.107 118.652 251.107 118.79C251.107 118.927 251.107 119.059 251.107 119.19C251.123 119.429 251.073 119.667 250.963 119.879C250.853 120.091 250.686 120.269 250.481 120.392L249.029 121.225ZM254.225 118.79C254.225 117.908 254.486 117.046 254.976 116.313C255.466 115.58 256.163 115.008 256.978 114.671C257.793 114.334 258.689 114.246 259.554 114.419C260.419 114.591 261.213 115.016 261.836 115.64C262.459 116.264 262.883 117.059 263.054 117.924C263.225 118.789 263.136 119.685 262.798 120.5C262.46 121.314 261.887 122.01 261.154 122.499C260.42 122.988 259.558 123.248 258.676 123.247C258.091 123.247 257.511 123.132 256.971 122.907C256.431 122.683 255.94 122.355 255.526 121.941C255.113 121.527 254.785 121.036 254.562 120.495C254.339 119.954 254.224 119.375 254.225 118.79V118.79Z" fill="#EBEBEB"/>
<path d="M32.095 175.042L34.8118 179.75L36.2516 178.917C36.4593 178.799 36.6959 178.741 36.9348 178.749C37.1737 178.758 37.4054 178.834 37.6038 178.967C37.8354 179.111 38.067 179.249 38.3112 179.374C38.5243 179.48 38.7038 179.644 38.8298 179.846C38.9558 180.048 39.0233 180.281 39.0248 180.52V182.166H44.446V180.501C44.4436 180.261 44.5102 180.026 44.6378 179.822C44.7654 179.619 44.9487 179.457 45.1659 179.355C45.4037 179.23 45.6416 179.092 45.867 178.948C46.0653 178.815 46.297 178.739 46.5359 178.731C46.7748 178.722 47.0115 178.78 47.2191 178.898L48.6652 179.731L51.3758 175.023L49.9297 174.191C49.7246 174.069 49.5574 173.893 49.4468 173.682C49.3363 173.471 49.2867 173.233 49.3037 172.995C49.3037 172.864 49.3037 172.726 49.3037 172.594C49.3037 172.463 49.3037 172.325 49.3037 172.194C49.2867 171.956 49.3363 171.718 49.4468 171.507C49.5574 171.296 49.7246 171.12 49.9297 170.998L51.3758 170.159L48.6652 165.452L47.2191 166.284C47.0125 166.409 46.7744 166.471 46.5335 166.463C46.2925 166.455 46.0589 166.378 45.8607 166.241C45.635 166.092 45.4009 165.956 45.1596 165.834C44.9492 165.729 44.7716 165.568 44.6458 165.37C44.52 165.171 44.4509 164.942 44.446 164.707V163.042H39.0248V164.707C39.0233 164.945 38.9558 165.178 38.8298 165.38C38.7038 165.583 38.5243 165.746 38.3112 165.852C38.0698 165.975 37.8357 166.11 37.61 166.259C37.4125 166.395 37.1801 166.472 36.9404 166.48C36.7007 166.487 36.4638 166.426 36.2579 166.303L34.8118 165.471L32.095 170.178L33.541 171.017C33.7437 171.139 33.9091 171.315 34.0194 171.525C34.1297 171.734 34.1807 171.97 34.167 172.206C34.167 172.344 34.167 172.475 34.167 172.613C34.167 172.751 34.167 172.882 34.167 173.014C34.1833 173.252 34.1334 173.489 34.0229 173.7C33.9124 173.911 33.7456 174.088 33.541 174.21L32.095 175.042ZM37.2908 172.613C37.2908 171.733 37.5518 170.872 38.0409 170.14C38.5299 169.409 39.2251 168.838 40.0384 168.501C40.8516 168.164 41.7466 168.076 42.61 168.248C43.4733 168.42 44.2664 168.844 44.8889 169.466C45.5113 170.088 45.9352 170.882 46.107 171.745C46.2787 172.608 46.1906 173.503 45.8537 174.316C45.5168 175.13 44.9463 175.825 44.2144 176.314C43.4825 176.803 42.6219 177.064 41.7416 177.064C41.1571 177.064 40.5784 176.949 40.0384 176.725C39.4984 176.502 39.0077 176.174 38.5944 175.76C38.1811 175.347 37.8532 174.856 37.6296 174.316C37.4059 173.776 37.2908 173.198 37.2908 172.613Z" fill="#EBEBEB"/>
<path d="M112.236 28.3578H29.76V154.822H112.236V28.3578Z" fill="#EBEBEB"/>
<path d="M69.0853 33.4221H34.2547V89.6745H69.0853V33.4221Z" fill="#FCFCFC"/>
<path d="M107.747 33.4221H72.9227V89.6745H107.747V33.4221Z" fill="#FCFCFC"/>
<path d="M69.0853 93.5056H34.2547V149.758H69.0853V93.5056Z" fill="#FCFCFC"/>
<path d="M107.747 93.5056H72.9227V149.758H107.747V93.5056Z" fill="#FCFCFC"/>
<path d="M55.3446 33.4221L34.2547 54.5121V42.0672L42.906 33.4221H55.3446Z" fill="#EBEBEB"/>
<path d="M34.2547 147.68L69.0853 112.849V125.281L44.615 149.758H34.2547V147.68Z" fill="#EBEBEB"/>
<path d="M100.867 93.5056L72.9164 121.457V109.018L88.4287 93.5056H100.867Z" fill="#EBEBEB"/>
<path d="M107.747 74.1935V86.6259L104.698 89.6745H92.2599L107.747 74.1935Z" fill="#EBEBEB"/>
<path d="M107.747 136.725V149.163L107.152 149.758H94.72L107.747 136.725Z" fill="#EBEBEB"/>
<path d="M36.2516 93.5056H42.4678L34.2547 101.719V95.4963L36.2516 93.5056Z" fill="#EBEBEB"/>
<path d="M40.0828 89.6745L69.0853 60.6656V66.8818L46.2989 89.6745H40.0828Z" fill="#EBEBEB"/>
<path d="M102.551 33.4221L72.9164 63.0507V56.8345L96.3351 33.4221H102.551Z" fill="#EBEBEB"/>
<path d="M65.5672 33.4221L34.2547 64.7346V63.1759L64.0085 33.4221H65.5672Z" fill="#EBEBEB"/>
<path d="M53.7233 149.758L69.0853 134.39V135.948L55.282 149.758H53.7233Z" fill="#EBEBEB"/>
<path d="M107.747 95.7404V97.2866L72.9164 132.117V130.559L107.747 95.7404Z" fill="#EBEBEB"/>
<path d="M213.241 28.3578H130.765V154.822H213.241V28.3578Z" fill="#EBEBEB"/>
<path d="M170.09 33.4221H135.26V89.6745H170.09V33.4221Z" fill="#FCFCFC"/>
<path d="M208.746 33.4221H173.922V89.6745H208.746V33.4221Z" fill="#FCFCFC"/>
<path d="M170.09 93.5056H135.26V149.758H170.09V93.5056Z" fill="#FCFCFC"/>
<path d="M208.746 93.5056H173.922V149.758H208.746V93.5056Z" fill="#FCFCFC"/>
<path d="M135.26 93.5056H138.54L135.26 96.7859V93.5056Z" fill="#EBEBEB"/>
<path d="M135.26 84.3472L170.09 49.5103V61.9552L142.371 89.6745H135.26V84.3472Z" fill="#EBEBEB"/>
<path d="M198.623 33.4221L173.922 58.1241V45.6792L186.179 33.4221H198.623Z" fill="#EBEBEB"/>
<path d="M208.746 111.772V124.211L183.205 149.758H173.922V146.597L208.746 111.772Z" fill="#EBEBEB"/>
<path d="M170.09 33.4221V34.574L135.26 69.4046V63.1822L165.014 33.4221H170.09Z" fill="#EBEBEB"/>
<path d="M156.268 149.758L170.09 135.936V142.152L162.484 149.758H156.268Z" fill="#EBEBEB"/>
<path d="M208.746 97.2741V103.497L173.922 138.321V132.105L208.746 97.2741Z" fill="#EBEBEB"/>
<path d="M142.772 93.5056H144.331L135.26 102.576V101.024L142.772 93.5056Z" fill="#EBEBEB"/>
<path d="M146.603 89.6745L170.09 66.187V67.7457L148.162 89.6745H146.603Z" fill="#EBEBEB"/>
<path d="M204.414 33.4221L173.922 63.9146V62.3558L202.855 33.4221H204.414Z" fill="#EBEBEB"/>
<path d="M135.26 148.587L170.09 113.757V115.309L135.642 149.758H135.26V148.587Z" fill="#EBEBEB"/>
<path d="M191.894 93.5056L173.922 111.478V109.926L190.335 93.5056H191.894Z" fill="#EBEBEB"/>
<path d="M208.746 75.095V76.6537L195.725 89.6745H194.166L208.746 75.095Z" fill="#EBEBEB"/>
<path d="M156.5 280.141C207.309 280.141 248.497 274.589 248.497 267.74C248.497 260.891 207.309 255.339 156.5 255.339C105.691 255.339 64.5031 260.891 64.5031 267.74C64.5031 274.589 105.691 280.141 156.5 280.141Z" fill="#EBEBEB"/>
<path d="M265.975 273.017C280.24 273.017 291.804 270.728 291.804 267.903C291.804 265.078 280.24 262.789 265.975 262.789C251.71 262.789 240.146 265.078 240.146 267.903C240.146 270.728 251.71 273.017 265.975 273.017Z" fill="#EBEBEB"/>
<path d="M105.468 292.048C158.718 292.048 201.885 286.992 201.885 280.755C201.885 274.518 158.718 269.462 105.468 269.462C52.2191 269.462 9.05194 274.518 9.05194 280.755C9.05194 286.992 52.2191 292.048 105.468 292.048Z" fill="#EBEBEB"/>
<path d="M20.9084 252.585L54.8063 252.434L88.7042 252.378L156.5 252.272L224.296 252.378L258.194 252.434L292.092 252.585L258.194 252.741L224.296 252.791L156.5 252.898L88.7042 252.791L54.8063 252.741L20.9084 252.585Z" fill="#263238"/>
<path d="M89.3114 243.658L80.3846 267.74H90.8639L110.27 254.519L89.3114 243.658Z" fill="#FF6363"/>
<path opacity="0.1" d="M89.3114 243.658L80.3846 267.74H90.8639L110.27 254.519L89.3114 243.658Z" fill="black"/>
<path d="M223.689 243.658L232.615 267.74H222.136L202.73 254.519L223.689 243.658Z" fill="#FF6363"/>
<path opacity="0.1" d="M223.689 243.658L232.615 267.74H222.136L202.73 254.519L223.689 243.658Z" fill="black"/>
<path d="M232.218 238.476C274.034 196.659 274.034 128.862 232.218 87.0456C190.402 45.2293 122.604 45.2293 80.7877 87.0456C38.9714 128.862 38.9714 196.659 80.7877 238.476C122.604 280.292 190.402 280.292 232.218 238.476Z" fill="#FF6363"/>
<path opacity="0.1" d="M155.198 263.177C211.628 263.177 257.374 217.431 257.374 161.001C257.374 104.571 211.628 58.8252 155.198 58.8252C98.7678 58.8252 53.0222 104.571 53.0222 161.001C53.0222 217.431 98.7678 263.177 155.198 263.177Z" fill="black"/>
<path d="M224.184 229.991C261.566 192.61 261.566 132.002 224.184 94.6206C186.803 57.239 126.195 57.239 88.8135 94.6206C51.4319 132.002 51.4318 192.61 88.8135 229.991C126.195 267.373 186.803 267.373 224.184 229.991Z" fill="#FCFCFC"/>
<path d="M250.037 141.971C206.449 168.381 134.809 211.707 94.789 235.457C83.4668 225.912 74.5121 213.872 68.6284 200.282L201.046 77.5489C213.418 84.0622 224.214 93.2042 232.677 104.333C241.141 115.462 247.066 128.308 250.037 141.971V141.971Z" fill="#EBEBEB"/>
<path d="M252.14 165.627C251.792 176.278 249.653 186.793 245.811 196.733L126.452 253.192C121.247 251.472 116.202 249.305 111.372 246.713C147.411 225.873 213.316 187.956 252.14 165.627Z" fill="#EBEBEB"/>
<path d="M157.42 73.53H155.574V88.0407H157.42V73.53Z" fill="#C7C7C7"/>
<path d="M112.919 84.9493L111.314 85.8758L118.569 98.4424L120.174 97.516L112.919 84.9493Z" fill="#C7C7C7"/>
<path d="M80.0781 117.104L79.1547 118.703L91.7213 125.959L92.6447 124.359L80.0781 117.104Z" fill="#C7C7C7"/>
<path d="M82.2376 161.377H67.7269V163.223H82.2376V161.377Z" fill="#C7C7C7"/>
<path d="M91.711 198.639L79.1444 205.894L80.0678 207.494L92.6344 200.238L91.711 198.639Z" fill="#C7C7C7"/>
<path d="M118.565 226.167L111.316 238.737L112.921 239.663L120.17 227.092L118.565 226.167Z" fill="#C7C7C7"/>
<path d="M157.42 236.565H155.574V251.076H157.42V236.565Z" fill="#C7C7C7"/>
<path d="M194.439 226.15L192.834 227.077L200.089 239.643L201.694 238.717L194.439 226.15Z" fill="#C7C7C7"/>
<path d="M221.272 198.621L220.348 200.22L232.915 207.475L233.838 205.876L221.272 198.621Z" fill="#C7C7C7"/>
<path d="M245.273 161.377H230.762V163.223H245.273V161.377Z" fill="#C7C7C7"/>
<path d="M232.918 117.131L220.352 124.387L221.275 125.986L233.842 118.731L232.918 117.131Z" fill="#C7C7C7"/>
<path d="M200.09 84.969L192.841 97.5394L194.446 98.4651L201.695 85.8946L200.09 84.969Z" fill="#C7C7C7"/>
<path d="M244.553 163.536L151.711 166.128L151.824 157.051L244.578 161.07L244.553 163.536Z" fill="#FF6363"/>
<path d="M157.139 97.0175L161.157 167.668L152.074 167.549L154.678 96.9862L157.139 97.0175Z" fill="#263238"/>
<path d="M156.5 165.402C158.211 165.402 159.599 164.014 159.599 162.303C159.599 160.592 158.211 159.204 156.5 159.204C154.789 159.204 153.401 160.592 153.401 162.303C153.401 164.014 154.789 165.402 156.5 165.402Z" fill="#FF6363"/>
<path d="M241.968 162.247C241.624 161.208 223.188 136.862 221.936 136.399C221.792 136.337 213.56 142.196 213.56 142.196C213.216 142.647 197.566 139.341 197.566 139.341L197.409 158.221L225.923 157.595C225.923 157.595 229.773 159.862 233.298 161.708C234.795 162.551 236.342 163.301 237.93 163.956C239.376 164.344 242.318 163.28 241.968 162.247Z" fill="#DD6A57"/>
<path d="M237.949 163.974C236.359 163.324 234.811 162.574 233.316 161.727V161.727C229.792 159.849 225.942 157.614 225.942 157.614L219.595 157.752L209.647 141.72C211.832 142.108 213.453 142.346 213.566 142.196C213.566 142.196 221.798 136.33 221.942 136.399C223.194 136.862 241.623 161.201 241.974 162.247C242.325 163.292 239.376 164.344 237.949 163.974Z" fill="#FCFCFC"/>
<path d="M242.137 162.278C241.774 161.214 223.269 136.887 221.973 136.405C221.485 136.218 217.46 138.709 213.566 142.196L225.51 157.846C225.51 157.846 236.534 163.686 238.03 164.062C239.526 164.438 242.5 163.342 242.137 162.278Z" fill="#A6A6A6"/>
<path d="M240.897 162.666C237.692 158.666 225.153 142.227 222.293 138.027C222.293 137.989 222.293 137.977 222.293 138.027C225.548 141.92 237.943 158.466 240.935 162.635C241.01 162.704 240.966 162.76 240.897 162.666Z" fill="#263238"/>
<path d="M235.946 163.179C235.589 162.736 235.328 162.223 235.18 161.674C235.033 161.124 235.001 160.549 235.088 159.987C235.23 158.969 235.762 158.047 236.572 157.414C236.572 157.414 236.628 157.414 236.609 157.464C235.903 158.215 235.461 159.174 235.348 160.198C235.235 161.222 235.458 162.256 235.983 163.142C235.989 163.143 235.994 163.146 235.998 163.15C236.002 163.154 236.005 163.158 236.006 163.164C236.008 163.169 236.008 163.175 236.006 163.18C236.005 163.186 236.002 163.191 235.998 163.194C235.994 163.198 235.989 163.201 235.984 163.203C235.979 163.204 235.973 163.204 235.968 163.202C235.962 163.201 235.957 163.198 235.953 163.194C235.95 163.19 235.947 163.185 235.946 163.179V163.179Z" fill="#263238"/>
<path d="M226.894 158.835C225.642 157.22 224.765 154.885 225.329 152.857C225.329 152.775 225.466 152.813 225.473 152.857C225.811 154.855 226.363 156.811 227.119 158.691C227.138 158.721 227.145 158.757 227.137 158.792C227.129 158.826 227.108 158.857 227.078 158.876C227.049 158.895 227.012 158.901 226.978 158.894C226.943 158.886 226.913 158.865 226.894 158.835V158.835Z" fill="#263238"/>
<path d="M228.346 159.718C227.094 158.103 226.218 155.774 226.781 153.746C226.781 153.664 226.912 153.696 226.925 153.746C227.264 155.741 227.814 157.694 228.565 159.574C228.584 159.603 228.591 159.638 228.584 159.672C228.577 159.706 228.557 159.736 228.528 159.755C228.499 159.774 228.463 159.781 228.429 159.774C228.395 159.767 228.365 159.747 228.346 159.718V159.718Z" fill="#263238"/>
<path d="M229.792 160.607C228.54 158.991 227.664 156.656 228.227 154.628C228.227 154.553 228.365 154.584 228.377 154.628C228.71 156.625 229.26 158.579 230.017 160.456C230.037 160.486 230.045 160.523 230.038 160.558C230.031 160.593 230.01 160.624 229.98 160.644C229.95 160.664 229.913 160.671 229.878 160.664C229.843 160.657 229.812 160.636 229.792 160.607Z" fill="#263238"/>
<path d="M231.244 161.508C229.992 159.893 229.116 157.564 229.679 155.536C229.679 155.455 229.811 155.486 229.823 155.536C230.163 157.531 230.712 159.485 231.464 161.364C231.483 161.393 231.489 161.429 231.482 161.463C231.475 161.497 231.455 161.526 231.426 161.546C231.397 161.565 231.361 161.571 231.327 161.564C231.293 161.557 231.264 161.537 231.244 161.508V161.508Z" fill="#263238"/>
<path d="M219.213 142.014C217.823 140.174 220.671 138.014 222.067 139.855C223.463 141.695 220.602 143.849 219.213 142.014Z" fill="#263238"/>
<path d="M226.174 161.959C226.643 160.212 226.337 158.328 226.255 156.556C226.25 156.517 226.236 156.479 226.213 156.447C226.191 156.414 226.161 156.387 226.126 156.368C226.092 156.349 226.053 156.339 226.013 156.338C225.973 156.337 225.934 156.345 225.898 156.362C225.894 156.356 225.888 156.351 225.881 156.347C225.873 156.343 225.866 156.341 225.858 156.341C225.85 156.341 225.842 156.343 225.835 156.347C225.828 156.351 225.822 156.356 225.817 156.362C224.411 157.622 223.36 159.228 222.768 161.02C222.443 162.071 222.568 163.624 223.883 163.931C225.197 164.237 225.905 162.979 226.174 161.959ZM224.878 163.06C223 164.25 223.125 161.614 223.394 160.844C223.572 160.354 223.781 159.875 224.02 159.411C224.545 158.464 225.118 157.545 225.736 156.657C225.736 157.527 225.786 158.397 225.804 159.267C225.848 160.306 225.93 162.409 224.878 163.06Z" fill="#263238"/>
<path d="M220.352 151.342C219.382 152.281 220.077 153.67 220.897 154.403C222.325 155.635 224.052 156.471 225.905 156.826C225.913 156.826 225.921 156.826 225.928 156.823C225.936 156.821 225.943 156.817 225.949 156.811C225.955 156.806 225.959 156.8 225.962 156.792C225.966 156.785 225.967 156.777 225.967 156.769C226.006 156.764 226.044 156.751 226.077 156.729C226.109 156.707 226.137 156.679 226.157 156.645C226.177 156.611 226.189 156.573 226.192 156.534C226.195 156.494 226.188 156.455 226.174 156.419C225.329 154.86 224.615 153.082 223.319 151.83C222.574 151.098 221.278 150.453 220.352 151.342ZM224.415 154.315C224.847 155.073 225.241 155.849 225.704 156.588C224.714 156.144 223.747 155.651 222.806 155.11C222.357 154.84 221.926 154.541 221.516 154.215C220.89 153.702 219.407 151.511 221.642 151.548C222.894 151.573 223.908 153.414 224.427 154.315H224.415Z" fill="#263238"/>
<path d="M196.708 133.551H183.913C183.913 133.551 170.522 127.116 159.743 129.707C147.379 132.681 145.795 148.205 155.035 153.696C166.748 160.65 218.843 159.33 218.843 159.33L207.582 140.224C207.582 140.224 190.254 136.581 174.541 137.094L196.708 140.118V133.551Z" fill="#455A64"/>
<path d="M208.327 141.476C208.324 141.443 208.324 141.409 208.327 141.376V141.294C208.327 141.238 208.295 141.176 208.283 141.113C208.27 141.05 208.195 140.863 208.151 140.737C208.107 140.612 208.045 140.493 207.989 140.374C207.929 140.256 207.86 140.143 207.782 140.036C207.782 140.036 207.782 140.036 207.751 140.036C205.841 139.679 192.896 137.826 190.974 137.607C189.052 137.388 187.086 137.207 185.14 137.044C181.255 136.707 177.357 136.567 173.458 136.624H172.363C172.288 136.624 172.2 136.587 172.125 136.568L171.562 136.437C171.211 136.374 170.854 136.318 170.504 136.268C169.765 136.155 169.026 136.074 168.288 135.936C168.244 135.936 168.231 135.998 168.288 136.005C169.026 136.174 169.746 136.387 170.485 136.543L171.111 136.681C169.684 136.756 168.256 136.869 166.829 136.994C166.785 136.994 166.785 137.069 166.829 137.069C168.77 136.95 170.729 136.937 172.67 136.969C174.61 137 176.526 137.044 178.454 137.157C182.354 137.382 186.248 137.726 190.129 138.133C192.307 138.365 205.51 140.287 207.694 140.38H207.726C207.742 140.432 207.76 140.482 207.782 140.531L207.97 140.888C208.032 141 208.095 141.107 208.164 141.213L208.27 141.376L208.327 141.451C208.327 141.451 208.377 141.507 208.383 141.532C208.389 141.557 208.358 141.476 208.327 141.476Z" fill="#263238"/>
<path d="M214.781 158.146C214.092 157.032 213.466 155.874 212.84 154.691C212.214 153.508 211.588 152.381 210.918 151.229C209.635 148.932 205.04 141.213 204.583 140.656C204.583 140.625 204.495 140.656 204.508 140.7C204.727 141.326 207.6 146.421 208.264 147.586C209.585 149.871 210.975 152.105 212.345 154.365C212.734 154.991 213.14 155.617 213.535 156.281C213.929 156.944 214.355 157.533 214.718 158.209C214.718 158.221 214.806 158.184 214.781 158.146Z" fill="#263238"/>
<path d="M204.458 142.584C203.312 142.302 202.135 142.127 200.971 141.908L197.478 141.251C195.149 140.833 192.816 140.416 190.479 139.999C185.816 139.21 181.133 138.559 176.426 138.121C173.771 137.87 171.111 137.701 168.444 137.495C168.388 137.495 168.394 137.576 168.444 137.582C173.183 137.795 177.915 138.434 182.61 139.11C187.305 139.786 191.894 140.512 196.526 141.294L200.445 141.964C201.772 142.196 203.099 142.478 204.433 142.647C204.489 142.665 204.514 142.59 204.458 142.584Z" fill="#263238"/>
<path d="M217.698 224.358C216.577 224.246 188.67 211.701 187.906 210.549C187.618 210.117 189.209 205.948 191.268 200.959C191.719 199.882 192.182 198.774 192.664 197.653C195.794 190.354 199.243 182.679 199.243 182.679L217.936 191.018L210.843 205.76L209.291 208.996C209.291 208.996 217.823 218.574 218.524 219.926C219.225 221.278 218.825 224.471 217.698 224.358Z" fill="#DD6A57"/>
<path d="M217.698 224.358C216.577 224.246 188.67 211.701 187.906 210.549C187.556 210.023 189.972 203.976 192.664 197.653L210.818 205.76L209.266 208.996C209.266 208.996 217.798 218.574 218.499 219.926C219.2 221.278 218.825 224.471 217.698 224.358Z" fill="#FCFCFC"/>
<path d="M217.698 224.358C216.577 224.246 188.67 211.701 187.906 210.549C187.618 210.117 189.209 205.948 191.268 200.958L209.291 208.996C209.291 208.996 217.823 218.574 218.524 219.926C219.225 221.278 218.825 224.471 217.698 224.358Z" fill="#A6A6A6"/>
<path d="M217.804 223.063C213.178 220.847 194.304 212.339 189.565 210.499C189.522 210.499 189.515 210.499 189.565 210.499C194.104 212.796 213.047 221.141 217.785 223.113C217.848 223.182 217.898 223.106 217.804 223.063Z" fill="#263238"/>
<path d="M217.178 218.117C216.664 217.87 216.104 217.733 215.534 217.713C214.964 217.694 214.396 217.793 213.867 218.005C212.909 218.374 212.132 219.101 211.701 220.033C211.701 220.033 211.738 220.083 211.757 220.033C212.331 219.177 213.168 218.531 214.141 218.192C215.115 217.853 216.172 217.84 217.153 218.155C217.157 218.154 217.161 218.152 217.165 218.15C217.168 218.148 217.171 218.145 217.174 218.141C217.176 218.138 217.178 218.134 217.178 218.13C217.179 218.126 217.179 218.121 217.178 218.117V218.117Z" fill="#263238"/>
<path d="M210.893 210.273C209.015 209.41 206.561 209.097 204.715 210.104C204.639 210.142 204.715 210.242 204.765 210.236C206.789 210.116 208.82 210.212 210.824 210.524C210.855 210.527 210.887 210.52 210.913 210.502C210.939 210.484 210.957 210.458 210.966 210.428C210.974 210.398 210.971 210.366 210.958 210.337C210.945 210.309 210.922 210.286 210.893 210.273V210.273Z" fill="#263238"/>
<path d="M212.083 211.488C210.205 210.624 207.757 210.305 205.904 211.313C205.835 211.356 205.904 211.457 205.96 211.45C207.982 211.328 210.012 211.423 212.014 211.732C212.03 211.737 212.047 211.738 212.063 211.736C212.08 211.734 212.096 211.729 212.11 211.721C212.125 211.712 212.137 211.702 212.148 211.688C212.158 211.675 212.166 211.66 212.17 211.644C212.175 211.628 212.176 211.612 212.174 211.595C212.172 211.578 212.167 211.562 212.159 211.548C212.151 211.533 212.14 211.521 212.127 211.51C212.114 211.5 212.099 211.492 212.083 211.488V211.488Z" fill="#263238"/>
<path d="M213.278 212.702C211.4 211.832 208.946 211.519 207.1 212.527C207.024 212.565 207.1 212.671 207.15 212.665C209.172 212.542 211.201 212.637 213.203 212.946C213.232 212.948 213.262 212.94 213.286 212.923C213.31 212.906 213.328 212.882 213.337 212.854C213.345 212.826 213.344 212.795 213.334 212.768C213.323 212.741 213.304 212.717 213.278 212.702V212.702Z" fill="#263238"/>
<path d="M214.468 213.917C212.59 213.047 210.142 212.734 208.289 213.741C208.22 213.779 208.289 213.879 208.345 213.879C210.367 213.757 212.397 213.851 214.399 214.161C214.431 214.17 214.466 214.166 214.495 214.149C214.524 214.133 214.546 214.106 214.555 214.073C214.564 214.041 214.56 214.006 214.544 213.977C214.527 213.947 214.5 213.926 214.468 213.917Z" fill="#263238"/>
<path d="M192.752 206.58C190.648 205.641 189.183 208.909 191.293 209.854C193.403 210.799 194.861 207.525 192.752 206.58Z" fill="#263238"/>
<path d="M215.162 206.192C214.568 204.977 213.028 205.209 212.076 205.76C210.462 206.74 209.134 208.128 208.226 209.785C208.221 209.792 208.217 209.8 208.216 209.809C208.214 209.818 208.215 209.827 208.218 209.835C208.221 209.843 208.227 209.851 208.234 209.856C208.241 209.862 208.249 209.865 208.258 209.867C208.25 209.905 208.251 209.945 208.261 209.983C208.271 210.021 208.29 210.056 208.316 210.085C208.342 210.114 208.375 210.137 208.412 210.151C208.448 210.165 208.488 210.171 208.527 210.167C210.273 209.848 212.183 209.716 213.779 208.865C214.718 208.37 215.726 207.337 215.162 206.192ZM211.075 209.134C210.223 209.316 209.359 209.453 208.514 209.666C209.266 208.884 209.985 208.07 210.812 207.362C211.208 207.017 211.626 206.697 212.064 206.405C212.752 205.973 215.294 205.234 214.568 207.356C214.161 208.521 212.095 208.921 211.075 209.134Z" fill="#263238"/>
<path d="M203.262 208.389C204.777 209.372 206.668 209.641 208.383 210.136C208.558 210.186 208.683 210.01 208.677 209.854C208.685 209.853 208.693 209.85 208.7 209.845C208.707 209.84 208.713 209.834 208.716 209.827C208.72 209.819 208.722 209.811 208.722 209.803C208.721 209.794 208.719 209.786 208.715 209.779C207.952 208.051 206.747 206.554 205.222 205.441C204.32 204.815 202.805 204.445 202.092 205.603C201.378 206.762 202.373 207.832 203.262 208.389ZM202.605 206.812C202.06 204.639 204.533 205.591 205.178 206.085C205.588 206.413 205.977 206.766 206.342 207.143C207.084 207.942 207.784 208.777 208.439 209.647C207.613 209.366 206.768 209.153 205.935 208.902C204.934 208.589 202.905 208.014 202.605 206.812Z" fill="#263238"/>
<path d="M193.09 195.938L214.092 205.441C214.092 205.441 239.132 157.414 239.758 142.709C240.315 130.189 231.62 125.369 203.45 133.463L196.564 133.551V138.308C199.588 138.709 207.669 139.98 207.669 139.98C213.547 142.196 215.438 143.11 215.344 143.304C200.708 172.901 193.09 195.938 193.09 195.938Z" fill="#455A64"/>
<path d="M218.806 138.02C217.961 139.154 217.172 140.33 216.421 141.532C211.857 139.583 207.031 138.317 202.098 137.776C200.716 137.605 199.327 137.482 197.929 137.407C197.872 137.407 197.872 137.488 197.929 137.495C202.879 137.826 207.773 138.742 212.508 140.224C213.817 140.625 215.1 141.094 216.389 141.557C215.488 143.003 214.637 144.481 213.823 145.971C212.297 148.763 210.924 151.637 209.71 154.578C209.034 156.2 208.377 157.833 207.794 159.492C207.794 159.542 207.857 159.574 207.876 159.524C210.451 153.798 213.255 148.193 216.289 142.709C217.147 141.163 218.042 139.636 218.881 138.077C218.906 138.033 218.837 137.983 218.806 138.02Z" fill="#263238"/>
<path d="M214.574 200.364C213.322 199.882 212.158 199.287 210.956 198.749L207.344 197.127C204.946 196.051 196.633 192.608 195.944 192.445C195.9 192.445 195.875 192.501 195.913 192.526C196.445 192.871 201.81 195.256 203.018 195.775C205.447 196.814 207.895 197.778 210.342 198.768C211.043 199.049 211.744 199.312 212.446 199.594C213.147 199.876 213.86 200.12 214.543 200.426C214.587 200.445 214.612 200.376 214.574 200.364Z" fill="#263238"/>
<path d="M218.706 140.224C217.047 143.354 215.632 146.678 214.192 149.933C212.752 153.188 211.363 156.437 210.004 159.711C207.304 166.238 204.8 172.841 202.492 179.518C201.171 183.274 199.938 187.093 198.736 190.905C198.736 190.955 198.805 190.98 198.824 190.905C201.052 184.163 203.462 177.484 205.985 170.873C208.508 164.262 211.169 157.689 213.992 151.198C214.785 149.378 215.59 147.561 216.408 145.745C217.228 143.93 218.08 142.127 218.85 140.293C218.85 140.18 218.743 140.118 218.706 140.224Z" fill="#263238"/>
<path d="M184.044 135.078C184.52 135.548 213.748 135.266 213.892 135.078C214.274 134.565 209.898 116.148 206.611 109.162C202.405 100.21 200.182 99.4651 198.849 98.9643C197.064 98.4599 195.177 98.4448 193.384 98.9205C192.558 99.2899 189.065 103.478 188.082 106.802C186.11 113.475 183.625 134.665 184.044 135.078Z" fill="#FF6363"/>
<path d="M203.763 101.268C216.665 110.32 227.989 123.103 227.075 127.297C226.111 131.729 217.566 136.937 209.91 138.189C208.345 138.446 203.093 127.059 204.69 126.471C205.942 126.02 211.575 124.211 212.252 123.403C212.709 122.84 203.437 110.658 200.358 104.235C197.096 97.5183 200.32 98.8454 203.763 101.268Z" fill="#DD6A57"/>
<path d="M207.926 126.02C207.926 126.02 203.137 126.646 200.02 127.222C198.285 127.541 195.356 128.343 194.185 129.163C192.439 130.383 185.897 136.599 187.374 138.221C188.708 139.686 190.567 137.238 190.567 137.238C190.567 137.238 188.282 139.742 190.054 140.762C191.825 141.783 193.954 138.396 193.954 138.396C193.954 138.396 191.343 140.863 193.328 141.802C195.055 142.615 197.922 138.934 197.922 138.934C197.922 138.934 194.899 141.226 196.589 142.233C198.467 143.348 203.475 138.371 203.475 138.371C206.68 138.737 209.926 138.415 212.997 137.426C213.51 137.257 207.926 126.02 207.926 126.02Z" fill="#DD6A57"/>
<path d="M193.252 139.222L193.797 138.446C194.135 137.931 194.503 137.435 194.899 136.963C195.293 136.512 195.706 136.08 196.151 135.654C196.595 135.229 197.102 134.809 197.541 134.352C197.543 134.347 197.547 134.342 197.552 134.338C197.557 134.335 197.562 134.332 197.568 134.331C197.574 134.33 197.58 134.331 197.586 134.333C197.592 134.334 197.597 134.337 197.601 134.342C197.605 134.346 197.608 134.351 197.61 134.357C197.612 134.363 197.612 134.369 197.611 134.375C197.61 134.381 197.608 134.386 197.604 134.391C197.601 134.396 197.596 134.4 197.591 134.402C197.149 134.849 196.731 135.319 196.339 135.811L195.168 137.232C194.786 137.701 194.379 138.133 193.985 138.59C193.791 138.816 193.603 139.053 193.422 139.285C193.257 139.518 193.075 139.738 192.877 139.942L192.833 139.911C192.951 139.669 193.092 139.438 193.252 139.222Z" fill="#263238"/>
<path d="M190.104 137.764C190.698 136.787 191.361 135.854 192.088 134.972C192.826 134.092 193.65 133.289 194.548 132.574C194.555 132.571 194.563 132.57 194.571 132.571C194.579 132.572 194.586 132.576 194.591 132.582C194.597 132.587 194.6 132.594 194.602 132.602C194.603 132.609 194.602 132.617 194.598 132.624C193.86 133.507 193.109 134.377 192.364 135.241C191.994 135.667 190.392 137.651 190.198 137.839C190.148 137.883 190.079 137.814 190.104 137.764Z" fill="#263238"/>
<path d="M196.182 140.675C196.763 139.77 197.403 138.904 198.098 138.083C198.877 137.311 199.714 136.599 200.602 135.955C200.609 135.951 200.617 135.95 200.624 135.952C200.632 135.953 200.639 135.956 200.644 135.962C200.65 135.967 200.654 135.975 200.655 135.982C200.656 135.99 200.655 135.998 200.652 136.005C199.869 136.775 199.074 137.526 198.336 138.34C197.972 138.734 196.62 140.387 196.238 140.731C196.22 140.762 196.163 140.719 196.182 140.675Z" fill="#263238"/>
<path d="M218.148 112.48L208.759 119.009C208.759 119.009 201.284 108.223 199.268 103.065C197.253 97.9064 199.406 97.825 204.564 101.443C209.723 105.062 218.148 112.48 218.148 112.48Z" fill="#FF6363"/>
<path d="M215.926 111.178C213.44 113.214 210.831 115.095 208.114 116.812C208.082 116.812 208.045 116.78 208.082 116.755C208.796 116.292 212.615 113.287 215.889 111.121C215.926 111.09 215.97 111.146 215.926 111.178Z" fill="#263238"/>
<path d="M187.975 101.412C177.922 107.046 168.569 113.832 166.879 118.377C165.84 121.237 167.405 126.308 168.644 129.35C169.27 130.828 183.199 124.536 181.984 123.335C178.98 120.355 178.473 119.134 178.767 118.502C178.948 118.101 189.822 108.023 192.814 103.547C196.99 97.3054 192.37 98.9518 187.975 101.412Z" fill="#DD6A57"/>
<path d="M187.8 137.031C186.485 137.826 184.808 134.427 184.808 134.427C184.779 135.087 184.52 135.716 184.075 136.205C183.255 137.025 181.603 136.099 181.603 136.099C181.429 136.777 181.056 137.387 180.532 137.851C179.662 138.559 177.865 137.851 177.865 137.851C177.36 138.385 176.681 138.72 175.95 138.797C173.99 138.922 172.244 136.487 171.117 134.947C169.99 133.407 168.238 127.998 167.799 126.997L177.602 119.685C177.602 119.685 184.614 125.137 185.678 127.134C186.548 128.831 189.778 135.842 187.8 137.031Z" fill="#DD6A57"/>
<path d="M184.801 134.377C184.204 132.377 183.363 130.457 182.297 128.662C182.297 128.624 182.216 128.662 182.235 128.699C183.243 130.49 183.8 132.587 184.739 134.415C184.745 134.417 184.752 134.417 184.759 134.416C184.766 134.415 184.772 134.413 184.778 134.409C184.784 134.406 184.789 134.401 184.793 134.396C184.797 134.39 184.8 134.384 184.801 134.377V134.377Z" fill="#263238"/>
<path d="M181.678 135.973C181.516 135.528 181.295 135.107 181.02 134.721C180.758 134.29 180.482 133.87 180.207 133.469C179.652 132.635 179.074 131.8 178.473 130.965C178.473 130.928 178.385 130.965 178.41 130.965C178.967 131.804 179.506 132.649 180.025 133.513C180.282 133.945 180.538 134.377 180.789 134.809C181.003 135.235 181.261 135.638 181.559 136.011C181.568 136.021 181.579 136.028 181.592 136.031C181.604 136.034 181.618 136.034 181.63 136.03C181.643 136.026 181.654 136.019 181.662 136.009C181.671 135.999 181.676 135.986 181.678 135.973V135.973Z" fill="#263238"/>
<path d="M177.815 137.826C177.661 137.424 177.439 137.051 177.158 136.725L176.382 135.585C175.868 134.828 175.355 134.064 174.867 133.288C174.867 133.244 174.779 133.288 174.804 133.319C175.293 134.114 175.775 134.916 176.275 135.704C176.519 136.092 176.764 136.481 177.014 136.862C177.209 137.234 177.467 137.569 177.778 137.851L177.815 137.826Z" fill="#263238"/>
<path d="M173.465 109.863L181.189 116.956C181.189 116.956 190.748 107.922 193.434 103.077C196.12 98.2319 194.004 97.8688 188.426 100.755C182.848 103.641 173.465 109.863 173.465 109.863Z" fill="#FF6363"/>
<path d="M173.465 109.863L181.189 116.956C181.189 116.956 190.748 107.922 193.434 103.077C196.12 98.2319 194.004 97.8688 188.426 100.755C182.848 103.641 173.465 109.863 173.465 109.863Z" fill="#FF6363"/>
<path d="M182.686 114.99C180.28 113.015 178.003 110.888 175.868 108.624C175.837 108.624 175.868 108.555 175.912 108.586C176.488 109.174 180.056 112.242 182.736 114.94C182.792 114.971 182.717 115.015 182.686 114.99Z" fill="#263238"/>
<path d="M188.983 105.011C188.633 105.825 188.282 106.639 187.994 107.478C187.997 107.422 187.997 107.365 187.994 107.309C188.021 106.8 188.081 106.294 188.176 105.794C188.176 105.738 188.1 105.719 188.094 105.794C187.994 106.295 187.906 106.802 187.844 107.315C187.813 107.559 187.8 107.803 187.787 108.048C187.787 108.048 187.787 108.104 187.787 108.135C187.462 109.25 187.268 110.383 186.992 111.503C186.992 111.559 187.068 111.578 187.08 111.503C187.349 110.401 187.756 109.331 188.107 108.254C188.457 107.177 188.733 106.082 189.064 105.005C189.052 104.999 189.002 104.974 188.983 105.011Z" fill="#263238"/>
<path d="M194.223 103.966C195.882 104.367 198.743 101.838 199.857 99.7906C199.932 99.6467 199.725 98.163 199.556 96.3414C199.456 95.2396 199.375 94.0064 199.375 92.8796C199.375 92.648 192.288 94.5698 192.288 94.5698C192.685 95.9836 192.908 97.4404 192.952 98.908C192.952 99.0637 192.935 99.219 192.902 99.3712C192.904 99.3962 192.904 99.4213 192.902 99.4463C192.764 100.329 192.62 103.578 194.223 103.966Z" fill="#DD6A57"/>
<path d="M198.962 92.9047C198.624 94.814 197.415 99.4213 193.634 99.4902C193.394 99.4987 193.152 99.484 192.914 99.4464C192.914 99.4151 192.914 99.3963 192.914 99.3712C192.946 99.2187 192.965 99.0637 192.971 98.908C192.926 97.44 192.701 95.9831 192.301 94.5698C192.301 94.5698 197.422 93.1801 198.962 92.9047Z" fill="#263238"/>
<path d="M199.018 83.5209C200.27 85.8309 200.389 93.2051 198.955 95.1395C196.877 97.9502 192.764 99.0019 190.191 96.3414C187.619 93.6809 187.687 84.1532 189.378 82.319C191.844 79.6147 197.19 80.128 199.018 83.5209Z" fill="#DD6A57"/>
<path d="M193.434 90.1064C193.434 90.1064 193.472 90.1064 193.472 90.1503C193.472 90.6511 193.547 91.2207 193.997 91.4023C193.434 91.3397 193.34 90.5822 193.434 90.1064Z" fill="#263238"/>
<path d="M193.853 89.5806C194.648 89.5055 194.749 91.1018 194.01 91.1769C193.271 91.252 193.184 89.6495 193.853 89.5806Z" fill="#263238"/>
<path d="M190.648 90.2943C190.648 90.2943 190.611 90.2942 190.611 90.3381C190.661 90.8326 190.611 91.4085 190.191 91.5901C190.736 91.5149 190.767 90.77 190.648 90.2943Z" fill="#263238"/>
<path d="M190.173 89.7997C189.371 89.7997 189.409 91.396 190.173 91.4022C190.936 91.4085 190.842 89.8122 190.173 89.7997Z" fill="#263238"/>
<path d="M194.517 88.266C194.292 88.266 194.079 88.2222 193.86 88.1971C193.625 88.2072 193.394 88.1389 193.202 88.0031C193.152 87.9479 193.121 87.878 193.113 87.8037C193.105 87.7294 193.121 87.6545 193.159 87.5899C193.256 87.4754 193.382 87.3889 193.524 87.3394C193.666 87.2898 193.819 87.2791 193.966 87.3082C194.271 87.322 194.56 87.4466 194.78 87.6588C194.827 87.7105 194.858 87.7746 194.869 87.8435C194.881 87.9124 194.872 87.9831 194.844 88.0472C194.817 88.1113 194.771 88.166 194.713 88.2048C194.655 88.2437 194.587 88.2649 194.517 88.266V88.266Z" fill="#263238"/>
<path d="M189.365 88.6791C189.578 88.6235 189.787 88.5545 189.991 88.4726C190.231 88.4404 190.453 88.3252 190.617 88.147C190.657 88.0831 190.674 88.0078 190.666 87.9329C190.658 87.8581 190.625 87.788 190.573 87.7339C190.449 87.6341 190.298 87.5722 190.139 87.5555C189.981 87.5389 189.821 87.5682 189.678 87.64C189.38 87.718 189.122 87.903 188.952 88.1596C188.919 88.2219 188.905 88.2923 188.912 88.3622C188.919 88.4322 188.946 88.4987 188.989 88.5537C189.033 88.6087 189.092 88.6499 189.159 88.6721C189.225 88.6944 189.297 88.6968 189.365 88.6791V88.6791Z" fill="#263238"/>
<path d="M194.53 94.6637C194.417 94.7889 194.31 94.9579 194.129 94.983C193.945 94.989 193.762 94.957 193.591 94.8891C193.591 94.8891 193.559 94.8891 193.591 94.8891C193.665 94.9796 193.762 95.0486 193.872 95.0893C193.982 95.13 194.101 95.1408 194.217 95.1207C194.316 95.0885 194.404 95.0272 194.469 94.9446C194.534 94.8621 194.572 94.7621 194.58 94.6575C194.58 94.6575 194.548 94.6449 194.53 94.6637Z" fill="#263238"/>
<path d="M193.916 93.2114C193.803 93.4151 193.649 93.5932 193.464 93.7344C193.278 93.8755 193.066 93.9767 192.839 94.0314C192.635 94.0813 192.424 94.1045 192.213 94.1003H192.094H191.988C191.961 94.0965 191.936 94.0841 191.917 94.0649C191.898 94.0457 191.885 94.0208 191.882 93.9939V93.9939V93.9C191.844 93.5181 191.85 92.9359 191.85 92.9359C191.713 93.0111 191.024 93.3741 191.018 93.1738C190.961 91.4514 191.076 89.7276 191.362 88.0281C191.366 88.0185 191.372 88.0103 191.38 88.0044C191.389 87.9986 191.399 87.9955 191.409 87.9955C191.419 87.9955 191.429 87.9986 191.438 88.0044C191.446 88.0103 191.452 88.0185 191.456 88.0281C191.518 89.6244 191.306 91.2144 191.343 92.817C191.59 92.685 191.853 92.5861 192.126 92.5228C192.182 92.5228 192.126 93.6496 192.126 93.8186C192.439 93.8331 192.752 93.7852 193.046 93.6777C193.341 93.5702 193.611 93.4053 193.841 93.1926C193.904 93.1425 193.947 93.1738 193.916 93.2114Z" fill="#263238"/>
<path d="M192.445 93.9C192.671 94.1599 192.96 94.3581 193.284 94.4759C193.463 94.5322 193.655 94.5322 193.835 94.4759C194.223 94.3445 194.21 93.9814 194.123 93.6746C194.072 93.5128 194.003 93.3573 193.916 93.2114C193.512 93.5926 192.996 93.834 192.445 93.9V93.9Z" fill="#263238"/>
<path d="M193.284 94.4634C193.463 94.5196 193.655 94.5196 193.835 94.4634C194.223 94.3319 194.21 93.9688 194.123 93.6621C193.913 93.6824 193.717 93.7724 193.565 93.9177C193.413 94.063 193.314 94.2552 193.284 94.4634V94.4634Z" fill="#FF98B9"/>
<path d="M188.858 85.618C191.468 86.9827 194.492 84.0906 194.492 84.0906C194.76 84.5934 195.183 84.9962 195.699 85.2387C196.214 85.4813 196.795 85.5506 197.353 85.4365C197.353 85.4365 198.311 89.4679 199.381 89.3302C201.021 89.1236 200.871 83.4959 200.226 82.4442C199.978 82.1201 199.667 81.8505 199.31 81.6523C198.954 81.4542 198.56 81.3316 198.154 81.2924C197.92 80.6493 197.453 80.1175 196.846 79.8025C195.594 79.0763 191.894 80.6914 191.894 80.6914C191.615 80.1884 191.22 79.7593 190.742 79.4394C190.628 79.3621 190.499 79.3086 190.364 79.2822C190.228 79.2557 190.089 79.2569 189.954 79.2855C189.819 79.3141 189.691 79.3697 189.578 79.4488C189.465 79.528 189.369 79.6291 189.296 79.7461C189.541 80.0222 189.717 80.3527 189.809 80.7102C190.148 81.8808 189.183 81.9935 189.052 80.9105C188.99 80.5056 189.076 80.0918 189.296 79.7461C188.733 79.1201 187.919 78.9574 187.487 79.3956C186.679 80.2344 186.692 84.51 188.858 85.618Z" fill="#263238"/>
<path d="M189.809 92.4915C189.065 92.5416 188.395 91.6714 188.32 90.5509C188.244 89.4304 188.777 88.4663 189.521 88.4162C190.266 88.3662 190.93 89.2363 191.011 90.3568C191.093 91.4774 190.554 92.4352 189.809 92.4915ZM189.54 88.6917C188.946 88.7292 188.52 89.5556 188.589 90.5321C188.658 91.5087 189.215 92.2599 189.791 92.2161C190.367 92.1722 190.811 91.3522 190.736 90.3756C190.661 89.3991 190.129 88.6479 189.54 88.6917Z" fill="#FF6363"/>
<path d="M194.373 92.166C193.966 92.2227 193.552 92.1558 193.183 91.9738C192.815 91.7918 192.51 91.5033 192.308 91.1457C192.106 90.788 192.016 90.3779 192.05 89.9685C192.084 89.5592 192.241 89.1696 192.499 88.8503C192.758 88.5311 193.106 88.297 193.5 88.1785C193.893 88.0601 194.313 88.0627 194.705 88.186C195.097 88.3093 195.442 88.5477 195.697 88.8701C195.951 89.1925 196.103 89.584 196.132 89.9937C196.185 90.5146 196.029 91.0352 195.7 91.4421C195.37 91.849 194.893 92.1092 194.373 92.166V92.166ZM194.104 88.3599C193.746 88.357 193.396 88.462 193.099 88.6612C192.802 88.8603 192.572 89.1444 192.439 89.4763C192.306 89.8082 192.276 90.1725 192.354 90.5217C192.431 90.8708 192.612 91.1885 192.872 91.4334C193.133 91.6782 193.461 91.8388 193.814 91.8941C194.168 91.9494 194.529 91.8969 194.852 91.7435C195.175 91.5901 195.445 91.3428 195.625 91.034C195.805 90.7252 195.888 90.3692 195.863 90.0125C195.847 89.5609 195.653 89.1339 195.323 88.8244C194.994 88.515 194.556 88.348 194.104 88.3599V88.3599Z" fill="#FF6363"/>
<path d="M192.407 90.0751C191.362 89.7872 190.924 90.1565 190.924 90.1565L190.736 89.9562C190.736 89.9562 191.274 89.4804 192.476 89.8122L192.407 90.0751Z" fill="#FF6363"/>
<path d="M195.982 89.8247L195.913 89.5555C196.088 89.5117 200.189 88.4475 200.639 88.3912C201.255 88.46 201.852 88.6448 202.398 88.9358L202.286 89.1799C201.787 88.923 201.25 88.7476 200.696 88.6604V88.6604C200.32 88.7042 197.453 89.4429 195.982 89.8247Z" fill="#FF6363"/>
<path d="M198.661 89.6181C198.661 89.6181 199.857 87.0202 201.009 87.4084C202.16 87.7965 201.547 91.3584 200.383 92.0408C200.242 92.1404 200.082 92.21 199.914 92.2451C199.745 92.2802 199.571 92.2801 199.402 92.2449C199.234 92.2096 199.074 92.1399 198.934 92.0402C198.793 91.9404 198.675 91.8128 198.586 91.6652L198.661 89.6181Z" fill="#DD6A57"/>
<path d="M200.746 100.285C200.006 101.27 199.212 102.212 198.367 103.108C197.588 103.985 196.548 104.587 195.4 104.824C194.285 104.974 193.159 104.824 192.689 103.434C192.345 102.269 192.265 101.041 192.457 99.8408C192.457 99.7782 192.376 99.7656 192.37 99.8408C192.188 101.65 192.038 104.436 193.697 104.986C195.575 105.612 197.296 104.592 198.523 103.277C199.382 102.378 200.14 101.387 200.783 100.323C200.783 100.323 200.764 100.266 200.746 100.285Z" fill="#263238"/>
<path d="M211.926 141.125H178.341V142.634H211.926V141.125Z" fill="#263238"/>
<path d="M203.306 142.628H170.572L167.849 120.399H200.577L203.306 142.628Z" fill="#263238"/>
<path d="M187.568 131.516C187.574 131.777 187.528 132.036 187.432 132.278C187.336 132.52 187.192 132.74 187.01 132.926C186.827 133.111 186.609 133.259 186.368 133.358C186.128 133.458 185.869 133.509 185.609 133.507C185.078 133.504 184.57 133.294 184.191 132.923C183.813 132.551 183.594 132.047 183.581 131.516C183.575 131.256 183.621 130.996 183.717 130.754C183.813 130.512 183.957 130.291 184.139 130.105C184.322 129.918 184.54 129.771 184.781 129.67C185.021 129.57 185.279 129.518 185.54 129.519C186.072 129.523 186.581 129.733 186.96 130.106C187.339 130.479 187.557 130.985 187.568 131.516V131.516Z" fill="#FCFCFC"/>
<path d="M181.684 281.819H60.9348L39.8323 194.198H160.581L181.684 281.819Z" fill="#A6A6A6"/>
<path d="M18.3793 281.819H139.128L160.231 194.198H39.4818L18.3793 281.819Z" fill="#DBDBDB"/>
<path d="M142.722 210.662L140.03 221.854L139.867 222.543L137.081 234.168L136.919 234.856L134.133 246.469L133.964 247.157L131.172 258.776L131.009 259.471L128.28 270.851H39.632L42.3614 259.471L42.5241 258.776L45.3161 247.157L45.4851 246.469L48.2708 234.856L48.4398 234.168L51.2255 222.543L51.3883 221.854L54.0801 210.662H142.722Z" fill="#FCFCFC"/>
<path d="M67.0634 210.662L64.3716 221.854L64.2088 222.543L61.4231 234.168L61.2604 234.856L58.4747 246.469L58.3056 247.157L55.5199 258.776L55.3509 259.471L52.6216 270.851H51.9142L54.6498 259.471L54.8126 258.776L57.5983 247.157L57.7673 246.469L60.5467 234.856L60.7157 234.168L63.5077 222.543L63.6705 221.854L66.3497 210.662H67.0634Z" fill="#EBEBEB"/>
<path d="M79.6898 210.662L76.998 221.854L76.8352 222.543L74.0495 234.168L73.8868 234.856L71.1011 246.469L70.932 247.157L68.1463 258.776L67.9773 259.471L65.248 270.851H64.5406L67.2762 259.471L67.439 258.776L70.2247 247.157L70.3937 246.469L73.1731 234.856L73.3421 234.168L76.1341 222.543L76.2969 221.854L78.9761 210.662H79.6898Z" fill="#EBEBEB"/>
<path d="M92.3225 210.662L89.6369 221.854L89.4679 222.543L86.6822 234.168L86.5195 234.856L83.7338 246.469L83.571 247.157L80.779 258.776L80.61 259.471L77.8807 270.851H77.1733L79.9089 259.471L80.0779 258.776L82.8574 247.157L83.0264 246.469L85.8121 234.856L85.9748 234.168L88.7668 222.543L88.9296 221.854L91.6151 210.662H92.3225Z" fill="#EBEBEB"/>
<path d="M104.949 210.662L102.263 221.854L102.094 222.543L99.3086 234.168L99.1459 234.856L96.3602 246.469L96.1974 247.157L93.4054 258.776L93.2364 259.471L90.5071 270.851H89.7997L92.5353 259.471L92.7043 258.776L95.4838 247.157L95.6528 246.469L98.4385 234.856L98.6012 234.168L101.393 222.543L101.556 221.854L104.242 210.662H104.949Z" fill="#EBEBEB"/>
<path d="M117.582 210.662L114.896 221.854L114.727 222.543L111.948 234.168L111.779 234.856L108.993 246.469L108.83 247.157L106.038 258.776L105.875 259.471L103.146 270.851H102.432L105.168 259.471L105.337 258.776L108.123 247.157L108.285 246.469L111.071 234.856L111.234 234.168L114.026 222.543L114.189 221.854L116.874 210.662H117.582Z" fill="#EBEBEB"/>
<path d="M130.208 210.662L127.522 221.854L127.353 222.543L124.574 234.168L124.405 234.856L121.619 246.469L121.457 247.157L118.665 258.776L118.502 259.471L115.772 270.851H115.059L117.794 259.471L117.963 258.776L120.749 247.157L120.912 246.469L123.698 234.856L123.86 234.168L126.652 222.543L126.821 221.854L129.501 210.662H130.208Z" fill="#EBEBEB"/>
<path d="M140.03 221.854L139.867 222.543H51.2256L51.3883 221.854H140.03Z" fill="#EBEBEB"/>
<path d="M137.081 234.168L136.919 234.856H48.2708L48.4398 234.168H137.081Z" fill="#EBEBEB"/>
<path d="M134.133 246.469L133.964 247.157H45.3161L45.4851 246.469H134.133Z" fill="#EBEBEB"/>
<path d="M131.172 258.776L131.009 259.471H42.3614L42.5242 258.776H131.172Z" fill="#EBEBEB"/>
<path d="M55.1506 233.955L51.8891 228.252L53.3727 227.401L55.4135 230.969L62.8504 221.998L64.165 223.088L55.1506 233.955Z" fill="#FF6363"/>
<path d="M70.9321 270.2L67.6706 264.498L69.1542 263.646L71.1887 267.214L78.6256 258.244L79.9402 259.333L70.9321 270.2Z" fill="#FF6363"/>
<path d="M115.81 235.376C114.229 236.245 112.772 237.323 111.478 238.581C110.226 239.833 109.131 241.354 108.974 243.063C108.91 243.461 108.927 243.868 109.026 244.259C109.126 244.65 109.304 245.016 109.55 245.336C110.127 245.935 110.871 246.347 111.685 246.519C113.399 246.878 115.174 246.833 116.868 246.387C118.582 246.023 120.19 245.272 121.569 244.19C122.238 243.654 122.794 242.99 123.203 242.237C123.61 241.514 123.787 240.684 123.71 239.858C123.639 239.453 123.486 239.067 123.262 238.722C123.037 238.378 122.744 238.083 122.402 237.855C121.683 237.357 120.872 237.006 120.017 236.822C118.263 236.409 116.434 236.428 114.689 236.878C116.423 236.244 118.291 236.072 120.111 236.378C121.045 236.53 121.939 236.868 122.74 237.373C123.162 237.636 123.527 237.98 123.815 238.385C124.103 238.79 124.308 239.248 124.417 239.733C124.566 240.719 124.385 241.727 123.904 242.6C123.459 243.455 122.849 244.213 122.108 244.829C120.631 246.01 118.91 246.847 117.069 247.28C115.228 247.713 113.314 247.731 111.466 247.333C110.501 247.106 109.628 246.594 108.962 245.862C108.639 245.461 108.424 244.985 108.336 244.478C108.26 243.991 108.26 243.494 108.336 243.007C108.623 241.06 109.869 239.501 111.221 238.293C112.598 237.099 114.145 236.116 115.81 235.376V235.376Z" fill="#FF6363"/>
<path d="M64.2902 213.779H54.8751L55.138 212.627H64.5531L64.2902 213.779Z" fill="#C7C7C7"/>
<path d="M59.9583 215.745H54.4244L54.6874 214.599H60.2212L59.9583 215.745Z" fill="#C7C7C7"/>
<path d="M102.558 249.949H96.8297L97.0926 248.804H102.82L102.558 249.949Z" fill="#C7C7C7"/>
<path d="M101.65 253.962H95.9219L96.1849 252.816H101.919L101.65 253.962Z" fill="#C7C7C7"/>
<path d="M105.356 251.921H96.3727L96.6419 250.769H105.619L105.356 251.921Z" fill="#C7C7C7"/>
<path d="M117.394 241.104H111.666L111.929 239.952H117.663L117.394 241.104Z" fill="#C7C7C7"/>
<path d="M120.192 243.07H111.209L111.478 241.924H120.455L120.192 243.07Z" fill="#C7C7C7"/>
<path d="M40.4646 219.857L45.9922 215.726C46.6135 215.263 47.0558 214.599 47.2442 213.848C47.3185 213.565 47.3329 213.27 47.2866 212.981C47.2402 212.692 47.1341 212.416 46.975 212.17C46.7874 211.904 46.5362 211.689 46.2443 211.545C45.9524 211.4 45.629 211.331 45.3036 211.344C44.6264 211.344 43.9674 211.564 43.4256 211.97L42.8497 212.402C42.8197 212.435 42.7831 212.462 42.7421 212.48C42.7011 212.499 42.6567 212.508 42.6118 212.508C42.5669 212.508 42.5225 212.499 42.4815 212.48C42.4405 212.462 42.4039 212.435 42.3739 212.402C42.3504 212.362 42.335 212.319 42.3286 212.273C42.3222 212.228 42.3249 212.182 42.3365 212.138C42.3482 212.093 42.3686 212.052 42.3965 212.015C42.4244 211.979 42.4593 211.949 42.4991 211.926L43.075 211.475C43.7559 210.96 44.5813 210.671 45.4351 210.649C45.8534 210.627 46.2704 210.713 46.6455 210.899C47.0207 211.086 47.3412 211.366 47.576 211.713C47.7819 212.025 47.9192 212.377 47.9785 212.747C48.0379 213.116 48.018 213.493 47.9203 213.854C47.6776 214.807 47.1138 215.647 46.324 216.233L41.5914 219.77H46.2176C46.2599 219.77 46.3016 219.78 46.3394 219.799C46.3771 219.818 46.4098 219.846 46.4348 219.88C46.4598 219.914 46.4764 219.954 46.4833 219.995C46.4901 220.037 46.487 220.08 46.4742 220.12C46.4495 220.213 46.3963 220.295 46.3221 220.356C46.248 220.417 46.1567 220.452 46.0611 220.458H40.5585C40.5155 220.463 40.4722 220.456 40.4327 220.438C40.3932 220.42 40.3589 220.393 40.3332 220.358C40.2896 220.273 40.2789 220.175 40.3032 220.083C40.3274 219.99 40.3849 219.91 40.4646 219.857Z" fill="#A6A6A6"/>
<path d="M37.729 232.359C38.0091 231.094 38.596 229.918 39.4379 228.934C39.7795 228.513 40.2031 228.165 40.683 227.912C41.1629 227.66 41.6892 227.507 42.2299 227.463C42.6875 227.47 43.1326 227.613 43.5077 227.876C43.8827 228.138 44.1703 228.507 44.3333 228.934C44.7419 230.031 44.7988 231.228 44.496 232.359C44.2063 233.622 43.6084 234.794 42.7557 235.77C42.4185 236.193 41.9986 236.543 41.5219 236.798C41.0451 237.053 40.5213 237.208 39.9826 237.254C39.5233 237.248 39.0767 237.102 38.7013 236.838C38.326 236.573 38.0394 236.201 37.8792 235.77C37.472 234.677 37.4194 233.483 37.729 232.359V232.359ZM38.4176 232.359C38.1418 233.359 38.1834 234.419 38.5365 235.395C38.6556 235.73 38.8728 236.021 39.1597 236.231C39.4466 236.441 39.79 236.56 40.1453 236.572C40.5643 236.527 40.9699 236.398 41.3377 236.192C41.7056 235.987 42.0282 235.709 42.2862 235.376C43.036 234.51 43.5626 233.475 43.8199 232.359C44.0876 231.356 44.0373 230.295 43.676 229.323C43.5626 228.985 43.3478 228.691 43.0609 228.481C42.7741 228.27 42.4292 228.153 42.0734 228.146C41.6533 228.182 41.2454 228.305 40.8756 228.508C40.5059 228.71 40.1825 228.988 39.9262 229.323C39.1817 230.195 38.6635 231.238 38.4176 232.359V232.359Z" fill="#A6A6A6"/>
<path d="M32.7085 253.455L38.2361 249.323C38.8574 248.86 39.2996 248.197 39.4881 247.445C39.5623 247.162 39.5768 246.867 39.5304 246.578C39.4841 246.289 39.378 246.013 39.2189 245.768C39.0313 245.505 38.7818 245.292 38.4923 245.149C38.2029 245.006 37.8827 244.937 37.56 244.948C36.8827 244.948 36.2238 245.167 35.682 245.574L35.1061 246.005C35.0761 246.039 35.0395 246.066 34.9985 246.084C34.9575 246.102 34.9131 246.112 34.8682 246.112C34.8233 246.112 34.7789 246.102 34.7379 246.084C34.6969 246.066 34.6602 246.039 34.6303 246.005C34.6068 245.966 34.5914 245.923 34.585 245.877C34.5786 245.832 34.5813 245.786 34.5929 245.741C34.6046 245.697 34.625 245.655 34.6529 245.619C34.6808 245.583 34.7157 245.552 34.7555 245.53L35.3314 245.079C36.0123 244.563 36.8377 244.274 37.6914 244.253C38.1034 244.234 38.5133 244.321 38.8824 244.505C39.2515 244.689 39.5676 244.964 39.8011 245.304C40.007 245.616 40.1442 245.969 40.2036 246.338C40.263 246.707 40.2431 247.084 40.1454 247.445C39.9026 248.398 39.3389 249.238 38.5491 249.824L33.8102 253.361H38.4426C38.485 253.361 38.5267 253.371 38.5644 253.39C38.6022 253.409 38.6349 253.437 38.6599 253.471C38.6849 253.505 38.7015 253.545 38.7084 253.587C38.7152 253.628 38.7121 253.671 38.6993 253.712C38.6746 253.804 38.6213 253.886 38.5472 253.947C38.4731 254.008 38.3817 254.044 38.2861 254.05H32.8024C32.7594 254.054 32.716 254.047 32.6765 254.029C32.637 254.012 32.6027 253.984 32.577 253.949C32.5352 253.865 32.5255 253.768 32.5497 253.677C32.5739 253.586 32.6303 253.507 32.7085 253.455V253.455Z" fill="#A6A6A6"/>
<path d="M28.7085 270.455L34.2361 266.323C34.8574 265.86 35.2996 265.197 35.4881 264.445C35.5623 264.162 35.5768 263.867 35.5304 263.578C35.4841 263.289 35.378 263.013 35.2189 262.768C35.0313 262.505 34.7818 262.292 34.4923 262.149C34.2029 262.006 33.8827 261.937 33.56 261.948C32.8827 261.948 32.2238 262.167 31.682 262.574L31.1061 263.005C31.0761 263.039 31.0395 263.066 30.9985 263.084C30.9575 263.102 30.9131 263.112 30.8682 263.112C30.8233 263.112 30.7789 263.102 30.7379 263.084C30.6969 263.066 30.6602 263.039 30.6303 263.005C30.6068 262.966 30.5914 262.923 30.585 262.877C30.5786 262.832 30.5813 262.786 30.5929 262.741C30.6046 262.697 30.625 262.655 30.6529 262.619C30.6808 262.583 30.7157 262.552 30.7555 262.53L31.3314 262.079C32.0123 261.563 32.8377 261.274 33.6914 261.253C34.1034 261.234 34.5133 261.321 34.8824 261.505C35.2515 261.689 35.5676 261.964 35.8011 262.304C36.007 262.616 36.1442 262.969 36.2036 263.338C36.263 263.707 36.2431 264.084 36.1454 264.445C35.9026 265.398 35.3389 266.238 34.5491 266.824L29.8102 270.361H34.4426C34.485 270.361 34.5267 270.371 34.5644 270.39C34.6022 270.409 34.6349 270.437 34.6599 270.471C34.6849 270.505 34.7015 270.545 34.7084 270.587C34.7152 270.628 34.7121 270.671 34.6993 270.712C34.6746 270.804 34.6213 270.886 34.5472 270.947C34.4731 271.008 34.3817 271.044 34.2861 271.05H28.8024C28.7594 271.054 28.716 271.047 28.6765 271.029C28.637 271.012 28.6027 270.984 28.577 270.949C28.5352 270.865 28.5255 270.768 28.5497 270.677C28.5739 270.586 28.6303 270.507 28.7085 270.455V270.455Z" fill="#A6A6A6"/>
<path d="M43.2566 200.182C42.8121 200.17 42.3752 200.064 41.9741 199.872C41.573 199.68 41.2166 199.406 40.9279 199.068C40.3019 198.348 39.4192 196.695 40.3019 193.697C41.1345 190.949 43.1314 189.816 44.6839 190.11C45.8733 190.335 47.1879 191.543 46.9563 194.204C46.95 194.303 46.9238 194.4 46.8791 194.489C46.8344 194.578 46.7722 194.657 46.6962 194.722C46.6201 194.786 46.5319 194.834 46.4368 194.864C46.3416 194.893 46.2415 194.903 46.1425 194.893C45.9431 194.873 45.7592 194.777 45.6304 194.623C45.5016 194.47 45.4382 194.272 45.4539 194.073C45.5728 192.689 45.1659 191.738 44.4022 191.569C43.5383 191.406 42.3113 192.238 41.7479 194.11C41.2346 195.819 41.341 197.24 42.0547 198.06C42.2043 198.258 42.3985 198.418 42.6214 198.527C42.8444 198.635 43.0899 198.69 43.338 198.686C43.44 198.664 43.5455 198.663 43.648 198.683C43.7504 198.704 43.8474 198.745 43.9331 198.805C44.0187 198.865 44.0911 198.942 44.1456 199.031C44.2001 199.12 44.2357 199.219 44.2499 199.323C44.2642 199.426 44.257 199.531 44.2286 199.632C44.2003 199.732 44.1514 199.826 44.0852 199.907C44.0189 199.987 43.9367 200.053 43.8437 200.101C43.7506 200.148 43.6488 200.176 43.5446 200.182C43.4486 200.188 43.3525 200.188 43.2566 200.182Z" fill="#A6A6A6"/>
<path d="M52.5839 200.182C52.135 200.174 51.693 200.07 51.2873 199.878C50.8815 199.686 50.5211 199.41 50.2302 199.068C49.6042 198.348 48.7215 196.695 49.6042 193.697C50.4305 190.949 52.4337 189.816 53.9862 190.11C55.1756 190.335 56.4902 191.543 56.2586 194.204C56.2515 194.303 56.2247 194.4 56.1797 194.488C56.1348 194.577 56.0725 194.656 55.9967 194.72C55.9209 194.784 55.833 194.832 55.7382 194.862C55.6434 194.892 55.5436 194.902 55.4448 194.893C55.2464 194.869 55.0652 194.769 54.94 194.613C54.8148 194.457 54.7555 194.259 54.7749 194.06C54.8939 192.677 54.487 191.725 53.7233 191.556C52.8531 191.393 51.6324 192.226 51.069 194.098C50.5494 195.807 50.6621 197.228 51.3758 198.048C51.5254 198.246 51.7196 198.405 51.9425 198.514C52.1655 198.623 52.411 198.678 52.6591 198.674C52.7611 198.651 52.8666 198.65 52.969 198.671C53.0714 198.691 53.1685 198.733 53.2542 198.792C53.3398 198.852 53.4122 198.929 53.4667 199.018C53.5212 199.107 53.5567 199.207 53.571 199.31C53.5853 199.413 53.5781 199.519 53.5497 199.619C53.5213 199.72 53.4725 199.813 53.4063 199.894C53.34 199.975 53.2578 200.041 53.1648 200.088C53.0717 200.136 52.9699 200.164 52.8656 200.17C52.772 200.179 52.678 200.183 52.5839 200.182V200.182Z" fill="#A6A6A6"/>
<path d="M61.855 200.182C61.4114 200.17 60.9755 200.064 60.5754 199.872C60.1753 199.68 59.82 199.406 59.5325 199.068C58.9065 198.348 58.0239 196.695 58.9065 193.697C59.7329 190.949 61.7361 189.816 63.2885 190.11C64.4779 190.335 65.7926 191.543 65.5609 194.204C65.5539 194.303 65.5271 194.4 65.4821 194.488C65.4371 194.577 65.3749 194.656 65.2991 194.72C65.2232 194.784 65.1353 194.832 65.0406 194.862C64.9458 194.892 64.846 194.902 64.7471 194.893C64.5471 194.875 64.3622 194.779 64.2331 194.625C64.104 194.471 64.0412 194.273 64.0585 194.073C64.1775 192.689 63.7706 191.738 63.0006 191.569C62.2306 191.4 60.916 192.238 60.3526 194.11C59.833 195.819 59.9457 197.24 60.6594 198.06C60.8058 198.254 60.995 198.411 61.2121 198.52C61.4293 198.628 61.6686 198.685 61.9114 198.686C62.0134 198.664 62.1189 198.663 62.2213 198.683C62.3237 198.704 62.4208 198.745 62.5065 198.805C62.5921 198.865 62.6645 198.942 62.719 199.031C62.7735 199.12 62.809 199.219 62.8233 199.323C62.8376 199.426 62.8303 199.531 62.802 199.632C62.7736 199.732 62.7248 199.826 62.6586 199.907C62.5923 199.987 62.5101 200.054 62.4171 200.101C62.324 200.148 62.2222 200.176 62.1179 200.182C62.0304 200.187 61.9426 200.187 61.855 200.182V200.182Z" fill="#A6A6A6"/>
<path d="M71.1574 200.182C70.7176 200.168 70.2857 200.062 69.8899 199.87C69.494 199.678 69.1431 199.405 68.86 199.068C68.234 198.348 67.345 196.695 68.234 193.697C69.0603 190.949 71.0635 189.816 72.616 190.11C73.8054 190.335 75.12 191.543 74.8946 194.204C74.886 194.303 74.858 194.399 74.8123 194.486C74.7665 194.574 74.704 194.652 74.6281 194.716C74.5522 194.78 74.4646 194.828 74.3701 194.857C74.2757 194.887 74.1763 194.898 74.0777 194.889C73.979 194.881 73.883 194.853 73.7952 194.807C73.7074 194.761 73.6294 194.699 73.5657 194.623C73.5021 194.547 73.454 194.459 73.4242 194.365C73.3944 194.271 73.3836 194.171 73.3922 194.073C73.5049 192.689 73.1042 191.738 72.3343 191.569C71.5643 191.4 70.2497 192.238 69.6863 194.11C69.1667 195.819 69.2794 197.24 69.993 198.06C70.1391 198.254 70.3282 198.412 70.5455 198.52C70.7627 198.629 71.0021 198.686 71.245 198.686C71.347 198.664 71.4526 198.663 71.555 198.683C71.6574 198.704 71.7545 198.745 71.8401 198.805C71.9258 198.865 71.9981 198.942 72.0527 199.031C72.1072 199.12 72.1427 199.219 72.157 199.323C72.1713 199.426 72.164 199.531 72.1357 199.632C72.1073 199.732 72.0585 199.826 71.9922 199.907C71.926 199.987 71.8438 200.054 71.7507 200.101C71.6577 200.148 71.5558 200.176 71.4516 200.182C71.3536 200.188 71.2554 200.188 71.1574 200.182V200.182Z" fill="#A6A6A6"/>
<path d="M80.4597 200.182C80.0128 200.166 79.5744 200.055 79.1732 199.858C78.7719 199.66 78.4168 199.381 78.131 199.037C77.505 198.317 76.6223 196.664 77.505 193.666C78.3313 190.917 80.3345 189.784 81.887 190.079C83.0764 190.304 84.391 191.512 84.1656 194.173C84.157 194.271 84.129 194.367 84.0833 194.455C84.0376 194.543 83.975 194.621 83.8991 194.685C83.8233 194.748 83.7356 194.796 83.6412 194.826C83.5467 194.856 83.4474 194.867 83.3487 194.858C83.2501 194.85 83.1541 194.822 83.0662 194.776C82.9784 194.73 82.9004 194.668 82.8368 194.592C82.7731 194.516 82.725 194.428 82.6953 194.334C82.6655 194.239 82.6546 194.14 82.6632 194.041C82.7759 192.658 82.3753 191.706 81.6053 191.537C80.8353 191.368 79.5207 192.207 78.9573 194.079C78.4377 195.788 78.5442 197.209 79.2641 198.029C79.4098 198.223 79.5989 198.381 79.8162 198.49C80.0335 198.598 80.2731 198.655 80.5161 198.655C80.6181 198.633 80.7236 198.632 80.826 198.652C80.9284 198.673 81.0255 198.714 81.1112 198.774C81.1968 198.833 81.2692 198.91 81.3237 198.999C81.3782 199.088 81.4137 199.188 81.428 199.291C81.4423 199.395 81.435 199.5 81.4067 199.601C81.3783 199.701 81.3295 199.795 81.2633 199.875C81.197 199.956 81.1148 200.022 81.0218 200.07C80.9287 200.117 80.8269 200.145 80.7226 200.151C80.6356 200.166 80.5478 200.176 80.4597 200.182V200.182Z" fill="#A6A6A6"/>
<path d="M89.7621 200.182C89.3152 200.166 88.8768 200.055 88.4755 199.858C88.0743 199.66 87.7192 199.381 87.4334 199.037C86.8074 198.317 85.9247 196.664 86.8074 193.666C87.6337 190.917 89.6369 189.784 91.1894 190.079C92.3788 190.304 93.6934 191.512 93.468 194.173C93.4601 194.272 93.4326 194.369 93.387 194.457C93.3413 194.546 93.2785 194.625 93.2022 194.689C93.1259 194.753 93.0376 194.801 92.9424 194.831C92.8473 194.86 92.7472 194.871 92.6479 194.861C92.4486 194.842 92.2646 194.746 92.1358 194.592C92.007 194.439 91.9437 194.241 91.9593 194.041C92.0783 192.658 91.6776 191.706 90.9077 191.537C90.0438 191.374 88.8168 192.207 88.2534 194.079C87.7401 195.788 87.8465 197.209 88.5602 198.029C88.7101 198.226 88.9044 198.386 89.1273 198.495C89.3502 198.603 89.5955 198.658 89.8435 198.655C90.0338 198.644 90.2215 198.704 90.3689 198.825C90.5163 198.946 90.6127 199.118 90.6388 199.307C90.6648 199.496 90.6187 199.688 90.5096 199.844C90.4005 200.001 90.2364 200.11 90.0501 200.151C89.9548 200.167 89.8586 200.178 89.7621 200.182V200.182Z" fill="#A6A6A6"/>
<path d="M99.0645 200.182C98.6176 200.166 98.1792 200.055 97.7779 199.858C97.3766 199.66 97.0215 199.381 96.7357 199.037C96.1097 198.317 95.2271 196.664 96.1097 193.666C96.9423 190.917 98.9455 189.784 100.492 190.079C101.681 190.304 102.996 191.512 102.77 194.173C102.763 194.272 102.735 194.369 102.689 194.457C102.644 194.546 102.581 194.625 102.505 194.689C102.428 194.753 102.34 194.801 102.245 194.831C102.15 194.86 102.05 194.871 101.95 194.861C101.751 194.842 101.567 194.746 101.438 194.592C101.309 194.439 101.246 194.241 101.262 194.041C101.381 192.658 100.974 191.706 100.21 191.537C99.3462 191.374 98.1192 192.207 97.5558 194.079C97.0425 195.788 97.1489 197.209 97.8625 198.029C98.009 198.222 98.1981 198.38 98.4153 198.488C98.6325 198.597 98.8717 198.654 99.1145 198.655C99.2166 198.633 99.3221 198.632 99.4245 198.652C99.5269 198.673 99.624 198.714 99.7096 198.774C99.7953 198.833 99.8676 198.91 99.9222 198.999C99.9767 199.088 100.012 199.188 100.027 199.291C100.041 199.395 100.034 199.5 100.005 199.601C99.9768 199.701 99.928 199.795 99.8617 199.875C99.7955 199.956 99.7133 200.022 99.6202 200.07C99.5272 200.117 99.4254 200.145 99.3211 200.151C99.2362 200.166 99.1505 200.176 99.0645 200.182Z" fill="#A6A6A6"/>
<path d="M108.367 200.182C107.92 200.166 107.482 200.055 107.08 199.858C106.679 199.66 106.324 199.381 106.038 199.037C105.412 198.317 104.529 196.664 105.412 193.666C106.245 190.917 108.242 189.784 109.794 190.079C110.983 190.304 112.298 191.512 112.066 194.173C112.06 194.272 112.034 194.369 111.989 194.458C111.945 194.547 111.882 194.626 111.806 194.69C111.73 194.755 111.642 194.803 111.547 194.832C111.452 194.862 111.352 194.872 111.253 194.861C111.053 194.842 110.869 194.746 110.741 194.592C110.612 194.439 110.548 194.241 110.564 194.041C110.683 192.658 110.276 191.706 109.512 191.537C108.649 191.374 107.422 192.207 106.858 194.079C106.345 195.788 106.451 197.209 107.165 198.029C107.315 198.227 107.509 198.387 107.732 198.495C107.955 198.604 108.2 198.659 108.448 198.655C108.639 198.644 108.826 198.704 108.974 198.825C109.121 198.946 109.217 199.118 109.243 199.307C109.27 199.496 109.223 199.688 109.114 199.844C109.005 200.001 108.841 200.11 108.655 200.151C108.559 200.167 108.463 200.177 108.367 200.182Z" fill="#A6A6A6"/>
<path d="M117.688 200.182C117.242 200.166 116.805 200.055 116.404 199.858C116.004 199.66 115.65 199.38 115.365 199.037C114.739 198.317 113.857 196.664 114.739 193.666C115.566 190.917 117.569 189.784 119.121 190.079C120.311 190.304 121.625 191.512 121.394 194.173C121.387 194.272 121.36 194.368 121.315 194.457C121.27 194.546 121.208 194.624 121.132 194.688C121.056 194.753 120.968 194.801 120.874 194.831C120.779 194.86 120.679 194.871 120.58 194.861C120.38 194.844 120.195 194.748 120.066 194.594C119.937 194.44 119.874 194.241 119.891 194.041C120.01 192.658 119.604 191.706 118.834 191.537C118.064 191.368 116.749 192.207 116.186 194.079C115.666 195.788 115.779 197.209 116.492 198.029C116.639 198.222 116.828 198.38 117.045 198.488C117.262 198.597 117.502 198.654 117.744 198.655C117.846 198.633 117.952 198.632 118.054 198.652C118.157 198.673 118.254 198.714 118.339 198.774C118.425 198.833 118.497 198.91 118.552 198.999C118.606 199.088 118.642 199.188 118.656 199.291C118.671 199.395 118.663 199.5 118.635 199.601C118.607 199.701 118.558 199.795 118.492 199.875C118.425 199.956 118.343 200.022 118.25 200.07C118.157 200.117 118.055 200.145 117.951 200.151C117.864 200.166 117.776 200.176 117.688 200.182V200.182Z" fill="#A6A6A6"/>
<path d="M126.965 200.182C126.519 200.168 126.081 200.059 125.68 199.861C125.279 199.663 124.926 199.382 124.643 199.037C124.017 198.317 123.128 196.664 124.017 193.666C124.843 190.917 126.846 189.784 128.399 190.079C129.595 190.304 130.903 191.512 130.678 194.173C130.67 194.272 130.644 194.368 130.599 194.457C130.554 194.546 130.491 194.624 130.416 194.688C130.34 194.753 130.252 194.801 130.157 194.831C130.062 194.86 129.963 194.871 129.864 194.861C129.664 194.844 129.479 194.748 129.35 194.594C129.221 194.44 129.158 194.241 129.175 194.041C129.288 192.658 128.887 191.706 128.117 191.537C127.253 191.374 126.033 192.207 125.469 194.079C124.95 195.788 125.062 197.209 125.776 198.029C125.926 198.227 126.12 198.387 126.343 198.495C126.566 198.604 126.811 198.659 127.059 198.655C127.25 198.644 127.437 198.704 127.585 198.825C127.732 198.946 127.828 199.118 127.855 199.307C127.881 199.496 127.834 199.688 127.725 199.844C127.616 200.001 127.452 200.11 127.266 200.151C127.166 200.167 127.066 200.178 126.965 200.182V200.182Z" fill="#A6A6A6"/>
<path d="M136.268 200.182C135.827 200.166 135.395 200.059 134.999 199.867C134.602 199.675 134.25 199.403 133.964 199.068C133.338 198.348 132.455 196.695 133.338 193.697C134.164 190.949 136.167 189.816 137.72 190.11C138.909 190.335 140.224 191.543 139.999 194.204C139.992 194.303 139.965 194.4 139.92 194.488C139.875 194.577 139.813 194.656 139.737 194.72C139.661 194.784 139.573 194.832 139.478 194.862C139.383 194.892 139.284 194.902 139.185 194.893C139.085 194.885 138.989 194.857 138.9 194.812C138.811 194.766 138.733 194.703 138.669 194.627C138.605 194.55 138.556 194.462 138.527 194.367C138.497 194.272 138.487 194.172 138.496 194.073C138.609 192.689 138.208 191.738 137.438 191.569C136.668 191.4 135.354 192.238 134.79 194.11C134.271 195.819 134.383 197.24 135.097 198.06C135.243 198.254 135.432 198.412 135.649 198.52C135.867 198.629 136.106 198.686 136.349 198.686C136.451 198.664 136.557 198.663 136.659 198.683C136.761 198.704 136.858 198.745 136.944 198.805C137.03 198.865 137.102 198.942 137.157 199.031C137.211 199.12 137.247 199.219 137.261 199.323C137.275 199.426 137.268 199.531 137.24 199.632C137.211 199.732 137.162 199.826 137.096 199.907C137.03 199.987 136.948 200.054 136.855 200.101C136.762 200.148 136.66 200.176 136.556 200.182C136.46 200.188 136.364 200.188 136.268 200.182V200.182Z" fill="#A6A6A6"/>
<path d="M145.57 200.182C145.123 200.166 144.685 200.055 144.283 199.858C143.882 199.66 143.527 199.381 143.241 199.037C142.615 198.317 141.733 196.664 142.615 193.666C143.442 190.917 145.445 189.784 146.997 190.079C148.187 190.304 149.501 191.512 149.276 194.173C149.267 194.271 149.239 194.367 149.194 194.455C149.148 194.543 149.085 194.621 149.009 194.685C148.934 194.748 148.846 194.796 148.751 194.826C148.657 194.856 148.558 194.867 148.459 194.858C148.36 194.85 148.264 194.822 148.177 194.776C148.089 194.73 148.011 194.668 147.947 194.592C147.883 194.516 147.835 194.428 147.806 194.334C147.776 194.239 147.765 194.14 147.774 194.041C147.886 192.658 147.486 191.706 146.716 191.537C145.852 191.374 144.631 192.207 144.061 194.079C143.548 195.788 143.654 197.209 144.368 198.029C144.515 198.222 144.704 198.38 144.921 198.488C145.138 198.597 145.377 198.654 145.62 198.655C145.811 198.641 146.001 198.701 146.15 198.821C146.299 198.941 146.397 199.114 146.424 199.304C146.451 199.494 146.405 199.686 146.295 199.844C146.186 200.001 146.02 200.111 145.833 200.151C145.746 200.166 145.658 200.176 145.57 200.182V200.182Z" fill="#A6A6A6"/>
<path d="M154.872 200.182C154.426 200.166 153.987 200.055 153.586 199.858C153.185 199.66 152.829 199.381 152.544 199.037C151.918 198.317 151.035 196.664 151.918 193.666C152.744 190.917 154.747 189.784 156.3 190.079C157.489 190.304 158.804 191.512 158.578 194.173C158.57 194.272 158.543 194.369 158.497 194.457C158.452 194.546 158.389 194.625 158.313 194.689C158.236 194.753 158.148 194.801 158.053 194.831C157.958 194.86 157.857 194.871 157.758 194.861C157.559 194.842 157.375 194.746 157.246 194.592C157.117 194.439 157.054 194.241 157.07 194.041C157.189 192.658 156.782 191.706 156.018 191.537C155.154 191.374 153.933 192.207 153.364 194.079C152.85 195.788 152.957 197.209 153.67 198.029C153.82 198.227 154.014 198.387 154.237 198.495C154.46 198.604 154.706 198.659 154.954 198.655C155.144 198.644 155.332 198.704 155.479 198.825C155.627 198.946 155.723 199.118 155.749 199.307C155.775 199.496 155.729 199.688 155.62 199.844C155.511 200.001 155.347 200.11 155.16 200.151C155.065 200.167 154.969 200.178 154.872 200.182Z" fill="#A6A6A6"/>
<path d="M259.646 206.743C259.804 204.054 260.183 201.382 260.779 198.755C261.253 196.336 262.226 194.042 263.634 192.019C264.29 191.097 265.123 190.315 266.083 189.716C267.044 189.118 268.113 188.715 269.23 188.532C271.421 188.263 273.474 189.24 275.115 190.623C277.149 192.332 278.701 194.598 280.16 196.789C281.769 199.245 283.233 201.793 284.542 204.42C284.548 204.437 284.547 204.456 284.541 204.472C284.534 204.489 284.522 204.503 284.506 204.511C284.49 204.519 284.472 204.522 284.454 204.518C284.437 204.514 284.421 204.504 284.411 204.489C283.284 202.263 281.982 200.13 280.517 198.11C279.185 196.17 277.683 194.351 276.028 192.677C274.526 191.205 272.611 189.835 270.432 189.766C269.364 189.779 268.314 190.04 267.364 190.529C266.415 191.018 265.592 191.721 264.961 192.583C263.496 194.461 262.757 196.783 262.2 199.062C261.61 201.562 261.223 204.105 261.042 206.668C260.61 211.926 260.497 217.222 260.378 222.499C260.312 225.483 260.266 228.469 260.241 231.457L260.203 235.996C260.261 237.459 260.203 238.924 260.028 240.378C260.009 240.44 259.971 240.494 259.92 240.533C259.868 240.571 259.805 240.592 259.74 240.592C259.675 240.592 259.612 240.571 259.56 240.533C259.508 240.494 259.47 240.44 259.452 240.378C259.272 239.002 259.205 237.614 259.252 236.227C259.227 234.796 259.208 233.362 259.195 231.927C259.17 229.139 259.16 226.351 259.164 223.563C259.195 217.948 259.264 212.327 259.646 206.743Z" fill="#263238"/>
<path d="M267.164 202.78C267.446 201.29 267.947 199.35 268.792 198.198C270.319 196.126 271.959 197.027 270.438 199.318C269.318 201.015 268.588 202.939 268.304 204.952C268.304 204.952 270.864 208.608 273.938 210.411C273.806 209.003 273.406 206.843 273.681 204.777C274.276 200.264 277.005 200.514 276.329 204.107C275.837 206.493 275.626 208.928 275.703 211.363C276.734 212.033 277.841 212.578 279.002 212.984C278.827 212.458 278.639 211.832 278.432 211.068C277.331 207.018 280.035 205.754 280.122 208.032C280.293 209.976 280.646 211.9 281.174 213.779C282.658 214.28 283.885 214.618 284.636 214.881C286.583 215.6 288.323 216.789 289.7 218.343C291.109 217.072 292.279 215.561 293.156 213.879C292.211 213.065 290.721 211.857 288.649 210.392C284.761 207.65 286.145 204.189 289.193 206.342C291.416 207.895 293.137 210.774 293.92 212.252C294.975 209.679 295.572 206.942 295.685 204.164C292.63 201.303 285.087 197.309 287.359 197.309C289.406 197.309 293.988 200.307 295.666 201.466C295.624 200.679 295.538 199.895 295.409 199.118C292.536 197.24 283.196 194.304 284.686 193.484C286.32 192.564 292.824 195.575 294.802 196.533C294.436 195.252 293.853 194.043 293.081 192.958C289.106 187.643 281.95 185.809 278.827 186.823C276.617 187.537 277.262 193.146 276.786 192.958C267.928 189.359 263.897 191.882 267.164 202.78ZM288.93 202.154C289.556 201.397 292.473 203.632 291.635 204.859C290.796 206.085 288.116 203.137 288.93 202.16V202.154ZM273.706 197.372C274.47 197.86 273.337 200.696 272.154 199.838C271.152 199.112 272.936 196.89 273.706 197.378V197.372Z" fill="#FF6363"/>
<path d="M274.864 198.248C275.265 197.453 275.684 196.67 276.116 195.907C276.539 195.153 277.032 194.44 277.587 193.778L277.205 193.309C277.155 193.246 277.243 193.159 277.299 193.221C277.45 193.39 277.587 193.565 277.731 193.741C277.746 193.747 277.759 193.757 277.77 193.768C277.781 193.78 277.789 193.794 277.794 193.81C278.345 194.436 278.858 195.143 279.353 195.838C280.226 196.036 281.087 196.284 281.932 196.583C282.802 196.877 283.666 197.209 284.511 197.534C284.605 197.572 284.561 197.722 284.467 197.678C283.634 197.309 282.783 196.952 281.913 196.658C281.043 196.364 280.254 196.163 279.409 195.932C279.678 196.314 279.941 196.695 280.198 197.09C281.767 197.592 283.293 198.22 284.761 198.968C286.301 199.7 287.785 200.552 289.262 201.403C289.344 201.453 289.262 201.585 289.181 201.534C287.729 200.687 286.235 199.914 284.705 199.218C283.278 198.548 281.8 197.998 280.36 197.34C283.985 202.974 286.157 209.535 289.068 215.576C289.112 215.663 288.974 215.738 288.937 215.651C288.048 213.529 287.027 211.463 286.057 209.391C285.193 207.513 284.342 205.635 283.472 203.757C283.221 203.212 282.958 202.661 282.695 202.117C282.852 205.14 282.789 208.214 283.284 211.2C283.284 211.22 283.276 211.239 283.262 211.253C283.248 211.267 283.229 211.275 283.209 211.275C283.189 211.275 283.17 211.267 283.156 211.253C283.141 211.239 283.134 211.22 283.134 211.2C282.927 207.97 282.357 204.79 282.376 201.541C282.376 201.541 282.376 201.541 282.376 201.497C281.763 200.245 281.103 199.033 280.398 197.86C279.196 200.689 277.932 203.563 277.374 206.624C277.374 206.718 277.205 206.674 277.23 206.58C278.044 203.538 278.802 200.489 280.273 197.672C279.502 196.391 278.648 195.162 277.719 193.991C277.312 194.742 276.798 195.456 276.341 196.17C275.885 196.883 275.453 197.578 275.039 198.304C274.143 199.833 273.383 201.438 272.767 203.099C272.736 203.187 272.585 203.143 272.623 203.056C273.374 201.428 274.075 199.813 274.864 198.248Z" fill="#263238"/>
<path d="M249.054 207.012C251.051 204.389 253.323 200.996 256.892 200.52C260.335 200.063 263.233 202.498 265.073 205.159C266.995 207.945 267.997 211.256 268.867 214.486C269.902 218.362 270.737 222.288 271.371 226.249C271.734 228.446 271.997 230.631 272.26 232.866C272.563 235.102 272.695 237.358 272.654 239.614C272.654 239.977 272.066 240.071 271.991 239.689C271.64 237.842 271.465 235.964 271.227 234.105C270.989 232.246 270.714 230.449 270.401 228.628C269.775 224.941 269.005 221.285 268.078 217.666C267.264 214.499 266.52 211.237 265.142 208.276C263.89 205.591 261.843 202.611 258.845 201.76C254.744 200.602 251.37 204.176 249.186 207.106C249.148 207.168 248.998 207.087 249.054 207.012Z" fill="#263238"/>
<path d="M236.234 210.962C236.234 211.438 236.234 211.914 236.234 212.377C237.389 211.593 238.724 211.112 240.115 210.981C243.433 210.787 243.101 213.284 240.891 213.284C239.338 213.23 237.789 213.464 236.321 213.973C236.653 218.355 237.686 221.917 237.861 221.973C240.795 221.944 243.723 221.714 246.625 221.285C245.887 219.501 244.121 217.084 245.092 216.947C246.062 216.809 246.97 218.918 247.414 221.166C249.596 220.855 251.749 220.374 253.856 219.726C252.466 218.405 250.3 216.734 251.189 216.108C252.078 215.482 253.749 217.767 254.738 219.419C255.731 219.071 256.677 218.602 257.555 218.023C255.734 215.056 251.001 214.267 251.721 212.195C252.441 210.123 256.76 213.241 258.607 217.203C261.073 214.875 261.925 211.463 261.818 208.502C259.784 208.164 255.821 208.408 256.184 206.949C256.547 205.491 259.371 205.91 261.662 206.88C261.503 205.703 261.088 204.575 260.447 203.575C258.425 200.702 251.683 203.907 251.683 203.907C251.683 203.907 252.704 197.321 250.244 196.057C248.829 195.331 246.275 195.218 243.639 196.602C245.073 196.789 246.769 197.328 247.439 198.361C248.272 199.675 246.813 200.301 245.962 199.669C245.336 199.224 244.234 197.86 242.118 197.584C241.173 198.301 240.331 199.144 239.614 200.088C239.348 200.43 239.099 200.785 238.869 201.153C240.11 200.662 241.444 200.454 242.776 200.541C244.107 200.629 245.403 201.011 246.569 201.66C249.355 203.212 247.621 206.098 245.217 204.833C242.813 203.569 240.534 202.329 237.899 202.849C236.868 205.153 236.32 207.643 236.29 210.167C237.61 209.303 239.076 208.684 240.616 208.339C243.495 207.713 244.271 209.466 241.135 209.635C239.428 209.738 237.76 210.189 236.234 210.962V210.962ZM239.902 206.58C239.752 205.647 241.78 205.478 242.08 206.242C242.325 206.868 240.052 207.481 239.902 206.58ZM256.885 212.496C257.098 212.001 258.419 212.633 258.263 213.253C258.056 214.054 256.66 212.959 256.885 212.471V212.496ZM247.22 215.263C248.222 214.918 249.636 217.435 248.541 217.942C247.445 218.449 246.406 215.526 247.22 215.238V215.263Z" fill="#FF6363"/>
<path opacity="0.1" d="M236.234 210.962C236.234 211.438 236.234 211.914 236.234 212.377C237.389 211.593 238.724 211.112 240.115 210.981C243.433 210.787 243.101 213.284 240.891 213.284C239.338 213.23 237.789 213.464 236.321 213.973C236.653 218.355 237.686 221.917 237.861 221.973C240.795 221.944 243.723 221.714 246.625 221.285C245.887 219.501 244.121 217.084 245.092 216.947C246.062 216.809 246.97 218.918 247.414 221.166C249.596 220.855 251.749 220.374 253.856 219.726C252.466 218.405 250.3 216.734 251.189 216.108C252.078 215.482 253.749 217.767 254.738 219.419C255.731 219.071 256.677 218.602 257.555 218.023C255.734 215.056 251.001 214.267 251.721 212.195C252.441 210.123 256.76 213.241 258.607 217.203C261.073 214.875 261.925 211.463 261.818 208.502C259.784 208.164 255.821 208.408 256.184 206.949C256.547 205.491 259.371 205.91 261.662 206.88C261.503 205.703 261.088 204.575 260.447 203.575C258.425 200.702 251.683 203.907 251.683 203.907C251.683 203.907 252.704 197.321 250.244 196.057C248.829 195.331 246.275 195.218 243.639 196.602C245.073 196.789 246.769 197.328 247.439 198.361C248.272 199.675 246.813 200.301 245.962 199.669C245.336 199.224 244.234 197.86 242.118 197.584C241.173 198.301 240.331 199.144 239.614 200.088C239.348 200.43 239.099 200.785 238.869 201.153C240.11 200.662 241.444 200.454 242.776 200.541C244.107 200.629 245.403 201.011 246.569 201.66C249.355 203.212 247.621 206.098 245.217 204.833C242.813 203.569 240.534 202.329 237.899 202.849C236.868 205.153 236.32 207.643 236.29 210.167C237.61 209.303 239.076 208.684 240.616 208.339C243.495 207.713 244.271 209.466 241.135 209.635C239.428 209.738 237.76 210.189 236.234 210.962V210.962ZM239.902 206.58C239.752 205.647 241.78 205.478 242.08 206.242C242.325 206.868 240.052 207.481 239.902 206.58ZM256.885 212.496C257.098 212.001 258.419 212.633 258.263 213.253C258.056 214.054 256.66 212.959 256.885 212.471V212.496ZM247.22 215.263C248.222 214.918 249.636 217.435 248.541 217.942C247.445 218.449 246.406 215.526 247.22 215.238V215.263Z" fill="black"/>
<path d="M238.281 221.473C239.877 219.069 241.461 216.652 243.132 214.299C243.908 213.205 244.716 212.133 245.555 211.081L245.21 210.981L244.622 210.843C244.171 210.743 243.721 210.655 243.264 210.586C242.834 210.519 242.402 210.473 241.968 210.449C241.506 210.402 241.04 210.402 240.578 210.449C240.522 210.449 240.515 210.374 240.578 210.374C241.041 210.417 241.517 210.374 241.98 210.374C242.444 210.374 242.882 210.424 243.326 210.474C243.771 210.524 244.165 210.58 244.578 210.662L245.261 210.818C245.401 210.844 245.539 210.879 245.674 210.924C246.533 209.86 247.416 208.817 248.322 207.794C245.82 206.426 243.134 205.427 240.346 204.827C240.303 204.827 240.346 204.746 240.346 204.752C243.179 205.285 245.91 206.258 248.441 207.638C248.941 207.081 249.442 206.524 249.949 205.973C250.456 205.422 251.12 204.752 251.633 204.095C251.671 204.051 251.733 204.095 251.696 204.139C250.995 204.841 250.331 205.578 249.705 206.348V206.348C250.728 207.136 251.696 207.991 252.604 208.909C253.543 209.829 254.482 210.787 255.352 211.745C255.383 211.782 255.352 211.832 255.295 211.801C254.419 210.837 253.505 209.923 252.541 209.04C251.577 208.158 250.569 207.344 249.599 206.474L248.866 207.344C248.747 207.494 248.622 207.638 248.497 207.782C248.5 207.792 248.5 207.803 248.497 207.813L247.27 209.291C247.687 209.962 248.037 210.673 248.315 211.413C248.616 212.126 248.866 212.859 249.098 213.597C249.555 215.134 249.894 216.704 250.112 218.292C250.112 218.336 250.043 218.355 250.037 218.292C249.797 216.725 249.42 215.181 248.91 213.679C248.66 212.909 248.366 212.158 248.065 211.406C247.765 210.655 247.439 210.061 247.189 209.372L246.137 210.655L245.843 211.037C245.846 211.044 245.847 211.051 245.847 211.058C245.847 211.065 245.844 211.072 245.841 211.079C245.837 211.085 245.832 211.09 245.826 211.094C245.819 211.097 245.812 211.099 245.805 211.1V211.1C244.722 212.471 243.683 213.879 242.675 215.3C242.726 215.406 242.764 215.517 242.788 215.632C242.838 215.807 242.888 215.995 242.932 216.177C243.019 216.544 243.088 216.916 243.138 217.291C243.182 217.641 243.214 217.998 243.232 218.349C243.218 218.75 243.228 219.151 243.264 219.551C243.264 219.613 243.176 219.613 243.195 219.551C243.234 219.177 243.224 218.801 243.163 218.43C243.126 218.042 243.076 217.66 243.007 217.278C242.938 216.896 242.863 216.596 242.782 216.258C242.738 216.083 242.694 215.914 242.644 215.751C242.594 215.588 242.575 215.563 242.55 215.469C242.08 216.139 241.611 216.809 241.148 217.491C240.228 218.831 239.32 220.177 238.406 221.523C238.343 221.604 238.237 221.541 238.281 221.473Z" fill="#263238"/>
<path d="M258.995 235.714C259.033 234.462 259.227 233.248 259.358 232.027C259.49 230.806 259.627 229.573 259.759 228.34C259.925 225.956 260.242 223.585 260.71 221.241C261.122 219.22 262.129 217.369 263.602 215.926C264.364 215.163 265.365 214.685 266.438 214.574C267.515 214.54 268.572 214.866 269.443 215.5C270.439 216.233 271.297 217.136 271.978 218.167C272.71 219.188 273.369 220.259 273.95 221.372C273.95 221.416 273.906 221.441 273.881 221.372C272.786 219.513 271.336 217.888 269.612 216.59C268.844 215.96 267.908 215.57 266.92 215.469C266.438 215.462 265.959 215.55 265.511 215.728C265.063 215.906 264.655 216.172 264.31 216.508C262.937 217.832 261.98 219.526 261.555 221.385C261.053 223.547 260.698 225.741 260.491 227.952C260.316 229.245 260.145 230.545 259.978 231.852C259.809 233.141 259.696 234.468 259.427 235.745C259.415 235.796 259.386 235.841 259.344 235.873C259.302 235.904 259.25 235.919 259.198 235.915C259.145 235.911 259.096 235.889 259.059 235.852C259.022 235.815 258.999 235.766 258.995 235.714V235.714Z" fill="#263238"/>
<path d="M265.042 226.168C265.421 226.684 265.869 227.146 266.376 227.538C266.175 226.337 265.931 224.208 266.538 223.075C267.477 221.31 268.585 222.186 268.028 223.701C267.469 225.084 267.162 226.555 267.12 228.046C268.4 228.846 269.77 229.491 271.202 229.967C271.048 229.278 270.999 228.568 271.058 227.864C271.246 225.986 272.686 225.986 272.31 227.97C272.173 228.731 272.108 229.502 272.116 230.274C274.196 230.916 276.322 231.395 278.476 231.708C279.575 230.281 280.461 228.701 281.105 227.019C279.578 226.637 276.473 226.549 276.536 225.454C276.623 223.983 279.666 225.116 281.393 226.186C281.795 224.903 281.973 223.561 281.919 222.217C280.54 221.833 279.123 221.597 277.694 221.516C274.564 221.247 274.695 219.457 276.98 219.501C278.67 219.532 280.805 220.565 281.813 221.097C281.155 216.809 277.881 214.054 275.258 213.948C270.845 213.773 272.429 219.263 272.429 219.263C272.429 219.263 269.437 217.159 266.62 217.216C263.803 217.272 262.025 221.973 265.042 226.168ZM276.83 218.23C276.73 217.604 278.708 217.466 278.802 218.23C278.921 219.144 276.93 218.862 276.83 218.23V218.23ZM279.997 224.671C279.96 224.271 280.811 224.202 280.999 224.709C281.13 225.041 280.035 225.072 279.997 224.671V224.671ZM269.399 225.047C270.063 225.141 270.445 227.52 269.299 227.476C268.423 227.438 268.836 224.972 269.399 225.047V225.047Z" fill="#FF6363"/>
<path d="M270.319 227.689C270.432 227.394 270.526 227.063 270.62 226.794C270.538 227.1 270.457 227.42 270.401 227.714C270.4 227.72 270.398 227.727 270.395 227.733C270.392 227.738 270.387 227.743 270.382 227.747C270.377 227.751 270.37 227.753 270.364 227.754C270.357 227.755 270.35 227.755 270.344 227.753C270.338 227.751 270.332 227.748 270.327 227.743C270.322 227.739 270.318 227.733 270.316 227.727C270.314 227.721 270.313 227.714 270.313 227.707C270.314 227.701 270.316 227.694 270.319 227.689Z" fill="#263238"/>
<path d="M271.484 223.87C271.69 223.244 271.922 222.656 272.16 222.055C272.291 221.735 272.416 221.429 272.56 221.109C272.659 220.827 272.791 220.558 272.955 220.308C272.816 220.061 272.696 219.804 272.598 219.538C272.598 219.538 272.598 219.494 272.636 219.538C272.964 219.954 273.251 220.4 273.493 220.872C273.618 221.078 273.737 221.291 273.856 221.498C274.107 221.522 274.356 221.562 274.601 221.617C274.864 221.66 275.127 221.717 275.39 221.773L276.179 221.961C276.435 222.017 276.692 222.105 276.961 222.149C277.018 222.149 276.992 222.255 276.961 222.23C276.692 222.135 276.416 222.062 276.135 222.011C275.884 221.961 275.628 221.917 275.371 221.879L274.601 221.786L274.019 221.735C274.119 221.923 274.232 222.105 274.332 222.293C274.332 222.293 274.363 222.349 274.382 222.38C274.593 222.378 274.804 222.403 275.008 222.455C275.233 222.493 275.465 222.537 275.69 222.587C276.147 222.693 276.611 222.8 277.061 222.925C278.019 223.194 278.939 223.501 279.903 223.808C279.953 223.808 279.903 223.901 279.872 223.883C278.935 223.57 277.982 223.307 277.018 223.094C276.567 222.994 276.116 222.887 275.659 222.793L274.983 222.649C274.803 222.622 274.625 222.583 274.451 222.53C274.939 223.432 275.396 224.34 275.816 225.272C276.73 227.294 277.506 229.385 278.288 231.463C278.288 231.514 278.226 231.545 278.207 231.463C277.45 229.396 276.572 227.375 275.578 225.41L275.046 224.34C275.025 224.412 275.009 224.485 274.996 224.559L274.864 225.297C274.783 225.786 274.701 226.28 274.626 226.775C274.417 227.785 274.297 228.811 274.269 229.842C274.269 229.905 274.175 229.898 274.188 229.842C274.263 229.354 274.263 228.841 274.294 228.346C274.326 227.851 274.363 227.313 274.426 226.8C274.488 226.286 274.545 225.811 274.626 225.316L274.758 224.578C274.771 224.393 274.818 224.213 274.895 224.045C274.639 223.526 274.382 223.006 274.119 222.487C273.856 221.967 273.625 221.523 273.374 221.041C273.268 220.834 273.155 220.627 273.042 220.415C272.957 220.668 272.859 220.917 272.748 221.16C272.636 221.435 272.523 221.717 272.404 221.992C272.154 222.618 271.916 223.244 271.684 223.87C271.346 224.753 270.977 225.66 270.707 226.581C270.958 225.679 271.183 224.734 271.484 223.87Z" fill="#263238"/>
<path d="M270.62 226.794C270.62 226.718 270.664 226.65 270.689 226.581C270.664 226.65 270.645 226.718 270.62 226.794Z" fill="#263238"/>
<path d="M248.898 236.071L249.436 244.002L250.826 264.447H281.124L282.508 244.002L283.046 236.071H248.898Z" fill="#37474F"/>
<path d="M248.898 236.071L249.436 244.002H282.508L283.046 236.071H248.898Z" fill="#263238"/>
<path d="M246.744 239.276H285.199V232.866H246.744V239.276Z" fill="#37474F"/>
<path d="M278.67 264.447H273.349V267.803H278.67V264.447Z" fill="#37474F"/>
<path d="M278.67 264.447H273.349V266.125H278.67V264.447Z" fill="#263238"/>
<path d="M258.588 264.447H253.273V267.803H258.588V264.447Z" fill="#37474F"/>
<path d="M258.588 264.447H253.273V266.125H258.588V264.447Z" fill="#263238"/>
<path d="M241.586 73.3484C241.29 76.2091 240.204 78.9312 238.45 81.2104C236.696 83.4895 234.343 85.236 231.653 86.2544C228.963 87.2728 226.044 87.5232 223.22 86.9774C220.396 86.4317 217.78 85.1114 215.663 83.1641L207.901 84.3034L211.782 77.5927C210.811 75.2306 210.446 72.6637 210.718 70.1245C210.913 68.0848 211.511 66.104 212.476 64.2965C213.441 62.4889 214.754 60.8904 216.34 59.5931C217.926 58.2958 219.754 57.3254 221.717 56.738C223.68 56.1506 225.74 55.9577 227.778 56.1706C229.816 56.3834 231.791 56.9978 233.59 57.9781C235.39 58.9585 236.977 60.2855 238.261 61.8825C239.545 63.4795 240.499 65.315 241.07 67.2829C241.641 69.2509 241.816 71.3123 241.586 73.3484V73.3484Z" fill="#FCFCFC"/>
<path d="M241.586 73.3484C241.286 76.2091 240.203 78.9318 238.456 81.2172C238.019 81.7828 237.548 82.3221 237.047 82.8323C236.53 83.329 235.982 83.7932 235.407 84.222C234.26 85.0908 232.995 85.7927 231.651 86.3066C229.652 87.0962 227.507 87.4504 225.36 87.3458C224.639 87.3271 223.921 87.2518 223.213 87.1204C220.349 86.5949 217.689 85.2811 215.532 83.3268L215.72 83.3832L207.963 84.5788L207.4 84.6602L207.688 84.1657L211.544 77.4424V77.7054C210.414 74.9285 210.103 71.8862 210.646 68.938C211.19 65.9897 212.566 63.2586 214.612 61.0672C216.657 58.8758 219.288 57.3157 222.192 56.5713C225.096 55.8268 228.152 55.929 231 56.8658C233.243 57.6285 235.287 58.8817 236.985 60.5342C238.667 62.1856 239.955 64.1958 240.752 66.4147C241.549 68.6336 241.834 71.0039 241.586 73.3484V73.3484ZM241.586 73.3484C241.832 71.012 241.539 68.6503 240.73 66.4449C239.92 64.2395 238.615 62.2494 236.915 60.6276C235.215 59.0058 233.166 57.7957 230.925 57.0904C228.684 56.385 226.311 56.2033 223.989 56.5591C221.689 56.8938 219.497 57.7503 217.579 59.0631C215.685 60.396 214.102 62.1238 212.94 64.1274C211.795 66.1376 211.121 68.3817 210.969 70.6904C210.817 72.9991 211.191 75.3121 212.064 77.455L212.114 77.5927L212.045 77.7179L208.139 84.4161L207.857 84.0092L215.626 82.9199H215.738L215.813 82.9951C217.886 84.9374 220.459 86.2621 223.244 86.8199C223.937 86.9651 224.64 87.0509 225.347 87.0766C226.054 87.1266 226.763 87.1266 227.47 87.0766C228.887 86.9677 230.282 86.66 231.614 86.1626C232.957 85.6766 234.222 84.9976 235.37 84.1469C235.943 83.7229 236.491 83.2651 237.01 82.776C237.514 82.2731 237.984 81.7377 238.418 81.1734C240.175 78.9069 241.271 76.1988 241.586 73.3484V73.3484Z" fill="#263238"/>
<path d="M224.333 80.585L217.71 73.8805L219.932 71.677L223.807 75.5957L231.852 62.9881L234.487 64.672L224.333 80.585Z" fill="#FF6363"/>
</g>
<defs>
<clipPath id="clip0_10_1694">
<rect width="313" height="313" fill="white"/>
</clipPath>
</defs>
</svg>
